<?xml version="1.0" encoding="UTF-8"?>
<!DOCTYPE svg PUBLIC "-//W3C//DTD SVG 1.1//EN" "http://www.w3.org/Graphics/SVG/1.1/DTD/svg11.dtd">
<!-- Creator: CorelDRAW -->
<svg xmlns="http://www.w3.org/2000/svg" xml:space="preserve" width="300px" height="166px" style="shape-rendering:geometricPrecision; text-rendering:geometricPrecision; image-rendering:optimizeQuality; fill-rule:evenodd; clip-rule:evenodd"
viewBox="0 0 300.474 166.507"
 xmlns:xlink="http://www.w3.org/1999/xlink">
 <defs>
  <style type="text/css">
   <![CDATA[
    .fil3 {fill:black}
    .fil15 {fill:#050505}
    .fil10 {fill:#080808}
    .fil7 {fill:#0A0A0A}
    .fil12 {fill:#0B0B0B}
    .fil17 {fill:#0C0C0C}
    .fil13 {fill:#0E0E0E}
    .fil8 {fill:#0F0F0F}
    .fil14 {fill:#101010}
    .fil9 {fill:#111111}
    .fil51 {fill:#151515}
    .fil52 {fill:#1A1A1A}
    .fil46 {fill:#1B1B1B}
    .fil22 {fill:#1C1C1C}
    .fil33 {fill:#1E1E1E}
    .fil16 {fill:#1F1F1F}
    .fil29 {fill:#222222}
    .fil36 {fill:#242424}
    .fil18 {fill:#282828}
    .fil32 {fill:#2A2A2A}
    .fil26 {fill:#2B2B2B}
    .fil39 {fill:#2C2C2C}
    .fil25 {fill:#313131}
    .fil37 {fill:#343434}
    .fil30 {fill:#373737}
    .fil47 {fill:#3D3D3D}
    .fil53 {fill:#3F3F3F}
    .fil44 {fill:#404040}
    .fil45 {fill:#424242}
    .fil43 {fill:#434343}
    .fil31 {fill:#474747}
    .fil19 {fill:#4C4C4C}
    .fil49 {fill:#4E4E4E}
    .fil48 {fill:#515151}
    .fil50 {fill:#525252}
    .fil38 {fill:#686868}
    .fil41 {fill:#747474}
    .fil34 {fill:#777777}
    .fil35 {fill:#7C7C7C}
    .fil54 {fill:#828282}
    .fil40 {fill:#838383}
    .fil28 {fill:#848484}
    .fil42 {fill:#8F8F8F}
    .fil21 {fill:#989898}
    .fil27 {fill:#C4B8A7}
    .fil55 {fill:#C4BAA9}
    .fil56 {fill:#C5B7A7}
    .fil0 {fill:#DFCFB6}
    .fil23 {fill:#EAEAEA}
    .fil2 {fill:#EDEBE7}
    .fil24 {fill:#EEEEEE}
    .fil1 {fill:#EFEDE9}
    .fil6 {fill:#F0F0F0}
    .fil20 {fill:#F4F1ED}
    .fil11 {fill:whitesmoke}
    .fil4 {fill:#FAFAFA}
    .fil5 {fill:#FBFBFB}
   ]]>
  </style>
 </defs>
 <g id="Layer_x0020_1">
  <metadata id="CorelCorpID_0Corel-Layer"/>
  <path class="fil0" d="M175.767 31.5089c8.48727,-0.729932 16.9285,-0.627473 25.1754,1.80325 12.6184,3.71898 21.3308,11.337 24.2104,24.6493 0.423271,1.9564 3.4048,3.9925 6.2844,4.22984 0.784923,0.064843 1.58059,-0.0170168 2.3682,0.0241818 0.900996,0.047468 2.12316,-0.377236 2.48428,0.778654 0.303258,0.970675 -0.569615,1.72174 -1.25315,2.37734 -0.737992,0.708079 -1.47348,1.42422 -2.26485,2.07068 -2.68776,2.19571 -4.32138,1.84838 -7.01523,-1.11039 -1.45789,-1.60137 -2.10901,-1.67213 -3.41519,0.0838302 -4.83367,6.49899 -11.3508,7.65076 -17.4806,2.69475 -5.19711,-4.2019 -3.91799,-12.1882 1.4484,-14.537 1.55695,-0.681568 6.32327,0.169631 7.38995,1.28486 0.642161,0.671179 -0.0166586,0.984826 -0.351263,1.33645 -1.14747,1.20622 -2.16114,2.57814 -1.04447,4.16393 1.14031,1.61946 2.96737,1.59242 4.73408,1.09714 4.60332,-1.28952 6.00909,-3.96922 4.38192,-8.90141 -1.99383,-6.04366 -6.21132,-10.116 -12.0013,-12.5631 -8.86486,-3.74603 -18.1777,-5.00671 -27.7498,-5.37337 -6.94447,-0.265821 -13.7696,-0.0207784 -20.5223,1.55301 -4.2517,0.990916 -8.15679,2.8033 -11.5379,5.61322 -0.561197,0.46644 -1.46828,0.973899 -1.07063,1.90284 0.353054,0.824151 1.26354,0.443154 1.91985,0.440825 3.81839,-0.0141508 7.63321,-0.0540956 11.5198,1.18437 -1.92845,2.07766 -3.13217,4.38479 -4.20477,6.71179 -2.95931,6.41892 -8.21751,8.93831 -14.9137,9.27399 -0.964943,0.0483636 -2.21237,-0.537373 -2.84073,0.492413 -0.67297,1.10376 0.489189,1.92648 1.03176,2.68203 2.6299,3.66488 2.26628,5.2702 -2.36301,8.19046 -1.30331,0.82236 -2.86402,1.29202 -4.36114,1.7427 -3.70196,1.11469 -5.91236,3.69426 -7.32171,7.12897 -0.149211,0.363443 -0.242714,0.770593 -0.47056,1.07582 -0.365414,0.490084 -0.315617,1.54925 -1.41759,1.13887 -0.931268,-0.346964 -1.11272,-1.00238 -0.83454,-1.89155 1.30815,-4.18488 2.25679,-8.481 3.90043,-12.5616 3.93088,-9.75923 9.44971,-18.5141 17.1915,-25.6563 10.6749,-9.8479 23.0635,-16.6408 37.5464,-18.8407 12.435,-1.88905 24.5431,0.0616188 36.3264,4.32944 11.0539,4.00379 20.8266,9.96254 28.7398,18.7341 4.45017,4.93309 7.68766,10.7043 10.734,16.5588 3.84795,7.3939 7.4754,14.9014 12.2967,21.7473 4.1247,5.85737 9.04023,10.8213 15.4067,14.2508 2.27398,1.22467 4.70846,1.31424 7.13596,1.0099 2.32414,-0.291077 3.09814,-2.19768 3.53878,-4.1976 0.279076,-1.26498 0.421301,-2.56022 0.644489,-3.96581 1.55355,1.42314 1.31424,3.44779 2.23834,4.95548 0.522685,1.09767 0.12897,2.26162 0.24558,3.3867 -1.30008,4.49423 -4.0294,7.41002 -8.86397,7.95921 -0.596663,0.067709 -0.988229,0.290002 -1.36636,0.768802 -2.19535,2.77679 -4.29003,3.38617 -7.63321,2.10238 -5.05829,-1.9426 -8.5222,-5.57005 -10.7582,-10.4489 -0.327081,-0.713811 -0.509967,-1.49712 -0.998081,-2.13409 -0.040303,-0.0526626 -0.127895,-0.069142 -0.361115,-0.187185 -0.746411,2.23135 -1.25692,4.51805 -2.14215,6.67543 -4.21283,10.2597 -9.6317,19.7198 -18.0033,27.2298 -0.352159,0.316155 -0.669209,0.671179 -0.998977,1.01098 -1.04035,1.07206 -1.44464,2.291 -0.653625,3.65073 0.89186,1.53223 2.39149,1.6526 3.9522,1.49103 1.55641,-0.16157 1.8251,-1.23739 1.8156,-2.55127 -0.010031,-1.43031 0.876814,-1.22467 1.78103,-0.897592 2.27488,0.823256 4.42473,4.04069 4.52701,6.76356 0.10425,2.78861 -1.76438,5.73126 -4.31421,6.7915 -6.04312,2.51383 -11.8141,0.0141508 -14.1189,-6.27294 -1.32803,-3.62279 -0.801402,-3.76304 -4.94115,-2.33936 -2.2412,0.770593 -4.46969,1.60137 -6.59912,2.63277 -5.18332,2.51097 -5.93457,6.54037 -3.84025,11.4821 0.853169,2.01336 1.85967,2.03181 3.24645,0.337829 1.58776,-1.93884 3.15635,-1.81274 4.43315,0.356457 2.63134,4.47059 1.21518,7.77812 -4.05788,9.47765 -0.473963,0 -0.947926,0 -1.42189,0 -0.00286599,-0.718468 -0.55027,-0.782415 -1.07009,-1.02083 -5.8511,-2.6806 -8.05881,-8.24599 -5.72374,-14.3185 0.974795,-2.53461 0.926073,-2.60608 -1.75596,-2.63653 -5.13926,-0.0587528 -10.345,0.662581 -15.308,-1.40004 -4.88006,-2.02805 -9.61987,-4.29003 -13.3749,-8.13977 -1.51754,-1.55587 -2.70764,-3.21904 -1.74037,-5.67394 1.01796,-2.58297 2.84503,-4.14977 5.45022,-4.6549 1.77638,-0.344635 2.90289,1.05504 3.79439,2.35405 0.377236,0.55027 -0.139896,1.1953 -0.821823,1.4312 -0.747307,0.258297 -0.743187,-0.27818 -0.738351,-0.764503 0.0103892,-1.10054 -0.0725454,-2.08626 -1.56393,-2.10901 -1.15499,-0.0175542 -2.3768,0.07774 -2.90665,1.15016 -0.52985,1.07349 -0.370608,2.23028 0.6015,3.24179 2.28061,2.37196 4.93309,4.28537 7.97909,5.34453 12.9023,4.48527 25.7721,4.82848 38.0758,-1.80575 10.8754,-5.86399 18.7692,-14.5773 22.9195,-26.3891 1.24742,-3.54971 2.51795,-7.09709 3.33082,-10.7901 0.191484,-0.869649 0.242714,-1.68771 0.25167,-2.64603 -1.47437,0.0639474 -1.75399,1.27769 -2.3408,2.10561 -2.44075,3.44689 -5.25408,6.46926 -9.15361,8.30761 -2.10005,0.989662 -4.27964,1.30385 -6.85778,0.987154 1.06543,-1.58006 2.63796,-2.24174 3.53878,-3.66542 1.62036,-2.55969 2.40242,-5.29993 2.45884,-8.22611 0.0772026,-4.00845 0.191484,-8.01761 -0.37634,-12.0275 -0.532716,-3.76304 0.418076,-7.52609 0.410016,-11.3004 -0.000895622,-0.512296 0.264388,-1.19386 -0.386192,-1.48208 -0.865887,-0.383326 -1.03892,0.507101 -1.38159,0.94506 -1.98058,2.52977 -4.01615,5.02408 -5.85361,7.65595 -3.23319,4.63072 -3.16441,8.04931 0.0411986,12.7232 0.217099,0.316513 0.601858,0.633563 0.236086,1.00847 -0.402851,0.412882 -0.857289,0.1227 -1.30008,-0.0635892 -4.9209,-2.06924 -7.03368,-6.30607 -8.38105,-11.0441 -1.92236,-6.75872 1.481,-11.6995 5.91558,-16.1185 2.69905,-2.68955 4.84084,-5.4778 4.98861,-9.52171 0.176796,-4.81988 -2.56488,-7.96727 -5.86632,-10.7527 -6.3161,-5.32841 -12.9421,-10.2416 -20.5868,-13.5459 -6.77771,-2.92994 -13.791,-4.83976 -21.2094,-5.61662 -7.95778,-0.833107 -15.6085,0.355024 -23.2982,1.95496 -0.725095,0.150644 -1.0237,0.636429 -1.52327,0.962077 -0.793879,1.09051 -2.23798,0.148315 -3.07109,0.967272 1.06024,-0.640011 2.30103,-0.198291 3.45549,-0.42345z"/>
  <path class="fil1" d="M300.474 103.001c-0.166407,-0.00609023 -0.332634,-0.0127178 -0.499578,-0.0193454 0.00232862,-1.25315 0.00465723,-2.50613 0.00752322,-3.75928 0.163899,-0.00429898 0.327977,-0.00859797 0.491876,-0.0127178 0.000179124,1.2639 0.000179124,2.52744 0.000179124,3.79135z"/>
  <path class="fil2" d="M0.499578 57.0094c-0.166407,0.0066276 -0.332634,0.0132552 -0.499578,0.0198828 0,-1.10573 0,-2.21183 0,-3.31756 0.166407,0.00609023 0.332634,0.0127178 0.498503,0.0189872 0.823435,1.09284 0.822897,2.18585 0.00107475,3.27869z"/>
  <path class="fil3" d="M48.3854 127.677c0.837048,-0.453006 0.490084,-1.28808 0.49098,-1.90427 0.0351084,-18.3151 -0.0284808,-36.6308 0.07774,-54.9455 0.0166586,-2.87584 -1.07116,-4.38246 -4.18435,-4.64272 0.144016,-0.209934 0.287674,-0.419868 0.43169,-0.629801 2.37859,0 4.7588,0.0497966 7.1356,-0.0213158 1.17488,-0.0351084 1.07063,0.725633 1.318,1.48727 2.7664,8.52327 2.96164,17.2995 2.85453,26.145 -0.110878,9.15451 0.117506,18.3133 0.0204202,27.4682 -0.0265104,2.50613 1.04125,3.80765 3.20328,4.56212 2.31984,0.809463 4.73408,1.20945 7.16211,1.37156 3.62852,0.241639 5.41511,-1.52757 5.42836,-5.48443 0.0222114,-6.46872 -0.118939,-12.938 -0.174825,-19.4076 -0.0327798,-3.78902 0.066276,-7.58251 -0.0924282,-11.3658 -0.073441,-1.75112 0.739425,-1.81381 1.94637,-1.46828 1.74557,0.499936 3.31703,1.4029 4.90102,2.27542 1.01993,0.562092 0.725991,1.48243 0.727066,2.30282 0.0152256,9.23744 0.0066276,18.4749 0.0109266,27.7118 0.00143299,3.65682 1.54226,5.18332 5.20285,5.03214 1.33215,-0.0549912 2.6763,-0.252207 3.97728,-0.55027 5.65836,-1.29579 6.43128,-2.30229 6.43074,-8.11756 -0.000537373,-14.4478 0.0569615,-28.8967 -0.0492592,-43.344 -0.0207784,-2.82031 1.17541,-5.15126 2.07677,-7.63321 0.117147,-0.322245 0.495279,-0.78152 0.7568,-0.783848 2.48678,-0.0241818 4.99381,-0.295197 7.81143,0.458379 -3.7763,0.937358 -3.02272,3.72883 -3.02416,6.15919 -0.0123596,17.6061 0.0155838,35.2123 -0.0308094,52.8184 -0.00716497,2.75923 -0.13703,5.39952 3.58822,5.90895 -20.4218,0 -40.8436,0 -61.5375,0 1.18204,-1.24079 3.12375,-0.694823 3.46122,-2.47962 -0.244863,-0.330126 -0.243788,-0.640549 0.0798895,-0.923028z"/>
  <path class="fil0" d="M48.3854 127.677c-0.0265104,0.308094 -0.0535582,0.616188 -0.0800686,0.924103 -3.21421,-0.157809 -6.42842,0.31096 -9.65964,-0.353054 -1.55032,-0.318483 -2.61522,1.19852 -3.55687,2.30569 -3.52463,4.14225 -1.89854,9.72269 1.83137,14.3611 2.33453,2.90325 5.14839,5.51613 5.90376,9.47013 0.627473,3.28532 -1.11129,7.61852 -4.11664,9.60608 -3.00284,1.98577 -7.5526,1.95066 -10.2336,-0.0786356 -1.51951,-1.1498 -2.14448,-3.4322 -1.29005,-5.33647 0.257402,0.780624 0.623174,1.38768 0.629801,1.99903 0.0250774,2.29817 1.87203,2.50093 3.27923,2.43699 1.56537,-0.0711124 3.3052,-0.575885 3.85601,-2.55216 0.934671,-3.35303 -0.0596484,-6.03273 -3.03562,-7.83311 -5.71192,-3.45495 -9.2593,-15.8246 -1.26498,-22.0687 0.504772,-0.394253 1.20909,-0.646997 0.948284,-1.41096 -0.276747,-0.812866 -1.07295,-0.544538 -1.63935,-0.450677 -4.72279,0.779549 -9.33704,1.89388 -13.0327,5.20947 -2.7037,2.42552 -5.0805,5.61519 -3.3052,8.65977 0.956345,1.64024 2.66537,2.11331 3.94933,3.21654 -2.82802,0.776862 -6.97725,-1.37496 -8.12419,-4.18721 -0.88774,-2.17726 -1.51987,-4.3323 0.0540956,-6.4895 0.619412,-0.84887 0.413777,-1.59045 -0.317946,-2.30139 -1.61516,-1.56967 -1.16359,-2.97812 0.25973,-4.46163 3.82126,-3.98337 8.30528,-5.58152 13.8465,-4.64828 2.60375,0.438317 5.28148,0.712736 7.98017,0.645564 2.03414,-0.0506922 2.04972,-0.698585 1.28002,-2.23511 -1.28289,-2.56255 -3.9033,-3.57067 -5.91666,-5.26733 -8.07493,-6.80476 -13.8692,-14.9232 -15.301,-25.6762 -0.553494,-4.1564 -1.00954,-8.23739 -2.581,-12.299 -2.01604,-5.21144 -0.225518,-10.5024 2.04023,-15.4473 1.4029,-3.06159 3.22567,-5.98293 3.37542,-9.46726 0.177333,-4.12219 -1.61893,-5.92705 -5.72177,-5.91845 -0.771489,0.00143299 -1.54316,0 -2.50613,0 3.27493,-2.41424 6.98997,-1.56913 10.3072,0.934671 3.88951,2.93549 5.85253,6.89288 4.35398,11.9446 -0.161212,0.544001 -0.363443,1.13278 0.0909952,1.55158 0.391028,0.360219 0.854423,0.0924282 1.28002,-0.179662 3.86676,-2.47102 8.14496,-3.12841 12.6489,-2.95018 1.56393,0.0616188 3.47967,0.634638 4.26638,-1.51844 0.724558,-1.98344 0.863559,-3.95113 -0.776325,-5.74362 4.02457,1.4441 5.61985,7.6882 2.83411,10.7193 -3.04547,3.3138 -6.86817,3.66345 -11.0606,3.08721 -2.43788,-0.335142 -4.82418,-1.19995 -7.43026,-0.481486 -1.49426,0.411807 -2.509,1.08764 -3.40802,2.23314 -4.41327,5.62415 -6.36447,12.1934 -6.1171,19.1337 0.307198,8.61803 3.65127,16.3095 9.22508,22.9403 3.02613,3.60004 5.79629,7.45641 9.71839,10.207 0.449244,0.31508 0.928043,0.592006 1.3583,0.930372 0.746949,0.58717 1.78999,1.28343 2.39292,0.488114 0.500473,-0.660252 -0.492413,-1.56877 -1.17112,-2.06495 -5.74416,-4.1985 -7.90565,-10.4062 -9.26825,-16.9323 -1.36869,-6.55774 -0.730827,-13.01 2.43555,-19.0175 1.49479,-2.83608 3.25684,-5.53656 5.9446,-7.46877 3.20042,-2.30103 6.73131,-1.52471 8.28146,1.82331 0.464469,1.00292 0.628906,1.97682 -0.179662,2.85166 -0.510863,0.552599 -1.0511,1.50715 -1.91179,1.00381 -0.895264,-0.523222 -0.102817,-1.18956 0.230354,-1.78157 0.429898,-0.763965 0.395686,-1.54316 -0.288569,-2.14931 -0.704675,-0.624607 -1.44589,-1.24832 -2.51419,-0.964047 -1.9598,0.520894 -3.24126,1.85537 -4.17109,3.56296 -3.19809,5.87295 -2.69708,12.0019 -0.94506,18.0891 2.73989,9.51759 7.57768,18.053 12.9702,26.2711 0.797462,1.2184 1.93365,2.40976 3.35303,3.12787z"/>
  <path class="fil3" d="M167.437 93.3775c-3.63264,-3.60524 -7.43689,-4.94742 -12.191,-3.23373 -2.61611,0.94309 -3.66202,2.81189 -4.05788,5.24691 -0.534149,3.28854 -0.228384,6.61757 -0.252565,9.92851 -0.0411986,5.68254 0.113744,11.3697 -0.0564242,17.0474 -0.109982,3.66972 0.455513,6.72128 4.42795,8.16395 -5.51703,0 -11.0346,0 -16.5516,0 3.54595,-1.37066 4.54636,-3.92318 4.46682,-7.57589 -0.202769,-9.30945 -0.219427,-18.6298 0.00859797,-27.9378 0.0915326,-3.7274 -1.03982,-6.18911 -4.60045,-7.67637 1.04841,-0.0653804 2.09629,-0.186648 3.14453,-0.187722 18.6227,-0.011464 37.2455,0.0170168 55.8682,-0.0449602 1.89155,-0.00609023 2.39668,0.346964 1.53563,2.16257 -0.586274,1.2356 -0.883441,2.60751 -1.40326,4.20512 -1.93562,-2.27775 -4.15174,-3.44116 -6.92889,-3.87482 -5.37821,-0.839735 -9.48284,1.9512 -9.48535,7.20904 -0.00376161,9.47102 -0.0250774,18.9426 -0.0080606,28.4138 0.00519461,2.87817 2.18442,4.02994 4.95261,5.30853 -6.15221,0 -11.6635,0 -17.1744,0 3.62225,-1.37066 4.5331,-4.02313 4.47202,-7.63553 -0.164436,-9.70567 -0.101026,-19.4162 -0.0256148,-29.1237 0.0193454,-2.48822 -0.92464,-4.19187 -3.03831,-5.41332 -0.946851,-0.546867 -1.36063,-0.314184 -1.65636,0.639295 -0.433839,1.39914 -0.915863,2.78252 -1.44607,4.3787z"/>
  <path class="fil0" d="M62.7385 84.9118c-2.30336,-12.8323 -5.69239,-24.9981 -9.43269,-37.1076 2.13892,2.20807 4.21748,4.44497 5.7678,7.05929 1.03319,1.74216 2.04542,2.72179 4.13974,1.0726 -0.10425,2.0816 -0.799969,3.78096 -0.657745,5.60194 0.214233,2.74831 1.56734,4.04176 4.44497,3.9891 3.1379,-0.0569615 4.44121,-1.29005 4.57484,-4.13974 0.117506,-2.50756 -1.06722,-4.54922 -2.15164,-6.64175 -0.205635,-0.397119 -0.804806,-0.738888 -0.459275,-1.21464 0.368638,-0.507997 1.00041,-0.361115 1.51754,-0.138463 2.32647,1.00381 3.28299,-0.241281 3.91709,-2.25303 0.51749,-1.64167 1.19189,-3.23499 1.81901,-4.84119 0.217457,-0.557793 0.500473,-1.08997 1.06257,-2.29852 0,2.545 0,4.38908 0,6.23263 0.000537373,3.83738 0.000537373,3.83738 3.96402,3.04977 -0.0995931,1.46309 -1.21375,2.35978 -1.72031,3.50421 -2.49861,5.64403 1.21608,7.62317 5.54874,8.17058 2.20663,0.278718 4.55352,-4.2019 3.88915,-7.11142 -0.278718,-1.21984 -0.67297,-2.41513 -1.05827,-3.60703 -0.151181,-0.466798 -0.36201,-0.937 0.0881292,-1.29005 0.434197,-0.340695 0.913355,-0.107654 1.31227,0.156376 0.913355,0.603828 2.03879,1.0631 2.66071,1.89388 1.22646,1.63845 2.15451,1.09105 3.21851,-0.043169 1.44464,-1.53975 2.97669,-2.97579 5.02838,-4.09138 0.183423,1.33215 -0.735126,2.11474 -1.22181,2.93173 -3.54451,5.94782 -5.97344,12.4019 -8.59188,18.762 -1.72748,4.1967 -3.46731,8.4038 -4.6318,12.8122 -0.284449,1.07582 -0.852095,0.915684 -1.50751,0.261701 -1.11612,-1.1138 -2.20323,-2.26682 -3.4005,-3.28819 -3.518,-3.00051 -12.0678,-3.3953 -16.9124,1.51844 -0.317229,0.320274 -0.681568,0.594156 -1.20766,1.04967z"/>
  <path class="fil3" d="M126.986 130.935c-1.70813,-0.827913 -0.292868,-2.4583 -1.03122,-3.71092 -0.774892,0.563525 -1.54925,1.15786 -2.35459,1.70616 -4.8369,3.29392 -10.5597,2.86294 -14.1696,-1.05594 -3.39709,-3.68763 -3.3541,-10.7127 0.103355,-14.7976 2.17439,-2.56972 5.09913,-4.19044 7.8014,-6.08539 1.62036,-1.13601 3.21761,-2.27954 4.42366,-3.87679 0.734589,-0.973004 0.919445,-1.83226 -0.504235,-2.36964 -1.15679,-0.436884 -2.19105,-0.993782 -1.9469,-2.52744 0.156913,-0.985721 0.935029,-1.23041 1.71852,-1.32695 1.37585,-0.170168 2.53748,0.310423 3.11515,1.61946 0.904757,2.04829 0.864454,4.13939 -0.179124,6.13358 -1.14496,2.18765 -2.80813,3.98337 -4.5331,5.72517 -2.23834,2.26019 -4.13562,4.73694 -4.94115,7.90279 -0.749815,2.94785 0.442258,5.67681 2.95161,6.67346 2.5047,0.994857 5.2564,-0.173034 6.76392,-2.79864 1.30474,-2.27201 1.57826,-4.81092 1.66156,-7.2995 0.195783,-5.83605 0.209038,-11.6805 0.156376,-17.5203 -0.0213158,-2.36587 -1.11899,-4.28143 -3.50188,-5.0943 -2.15254,-0.734052 -4.89242,0.316155 -6.20326,2.37053 -1.54692,2.42373 -0.645564,4.62374 0.73226,6.79383 0.404821,0.637862 1.50339,1.19566 0.933238,2.08017 -0.516595,0.800865 -1.59439,0.519819 -2.44129,0.47056 -1.93884,-0.111774 -3.41519,-1.07725 -4.49531,-2.65928 -3.8535,-5.64367 -0.513729,-13.0146 6.56867,-14.3479 2.48857,-0.468231 5.0522,-0.471993 7.52752,0.108012 5.31462,1.24545 7.85263,4.89816 7.8872,11.2934 0.0408404,7.57965 0.0823972,15.1607 -0.0241818,22.7388 -0.0549912,3.92032 -0.279076,7.7663 4.39947,9.40278 -2.53891,0.527521 -5.10809,0.082039 -7.65775,0.240206 -0.92052,0.0582154 -1.86791,-0.213337 -2.76031,0.211725z"/>
  <path class="fil3" d="M217.243 90.7614c5.56074,0 11.1218,0 16.9994,0 -4.82651,2.05259 -4.8677,2.11707 -4.8677,7.24271 0,8.21088 0.0852632,16.4227 -0.03887,24.6318 -0.0540956,3.58535 0.0299138,6.81049 5.06116,7.07255 -0.14115,0.224085 -0.282479,0.448886 -0.423629,0.67297 -3.84974,0 -7.70002,0.00143299 -11.5498,-0.00465723 -0.152614,-0.000537373 -0.430257,-0.0515878 -0.439392,-0.110878 -0.471097,-3.16405 -2.07354,-0.786714 -2.90002,-0.445482 -8.34164,3.4417 -15.4398,-1.0726 -15.8242,-10.0664 -0.271553,-6.35032 1.31227,-12.2971 3.56726,-18.1308 1.32749,-3.43417 2.86581,-6.7924 3.69766,-10.4048 0.142225,-0.618516 0.238952,-1.19476 0.160137,-1.85018 -0.257402,-2.14125 -1.06722,-3.41286 -3.53323,-2.84163 -1.1095,0.256864 -2.32271,0.206172 -2.53927,-1.31083 -0.237519,-1.66353 1.01474,-1.9478 2.23744,-2.08716 3.77057,-0.429898 6.5015,2.39239 6.91617,6.99051 0.411449,4.55925 -0.630339,8.92093 -1.68484,13.2824 -1.20855,4.99954 -1.94117,10.0417 -1.6483,15.2034 0.238415,4.2028 2.26825,6.95504 5.39057,7.24361 2.50702,0.231787 4.09998,-0.665805 5.00276,-3.00087 0.68533,-1.77154 0.937,-3.64446 0.932701,-5.55411 -0.0141508,-6.3161 -0.108012,-12.6342 0.0342128,-18.9469 0.0800686,-3.58285 -0.299138,-6.63727 -4.5503,-7.5852z"/>
  <path class="fil0" d="M126.232 69.1379c-2.16543,-9.20466 0.919445,-16.9493 6.29622,-23.9796 3.482,-4.55262 7.36398,-8.76294 11.8351,-12.4361 5.1355,-4.21856 6.68761,-9.65928 4.41416,-16.2541 1.60137,1.46595 2.68669,4.5872 2.94928,6.78953 0.567287,4.7536 -1.59904,8.59331 -3.97298,12.3128 -3.37954,5.29581 -7.79155,9.81333 -11.5526,14.8302 -4.16393,5.55411 -8.17255,11.1564 -9.34116,18.2356 -0.0261522,0.161212 -0.334604,0.275852 -0.62801,0.501548z"/>
  <path class="fil0" d="M138.393 1.03838c-2.68902,1.17918 -3.23696,3.28675 -2.73845,5.58492 0.570153,2.62704 3.37291,2.28491 5.19335,3.37918 -2.82551,-0.03887 -5.48336,0.248804 -7.9782,1.66532 -3.02613,1.71852 -4.25062,4.22787 -3.37291,7.50621 0.490084,1.8294 2.34886,2.6711 4.83278,2.2593 1.93705,-0.321349 2.48392,-1.59618 2.09199,-3.25684 -0.513729,-2.17439 0.38673,-2.21129 2.03933,-1.66926 2.69296,0.882904 4.73318,3.46641 4.68966,6.08199 -0.0411986,2.48392 -2.85829,5.5568 -5.75921,6.47069 -3.88001,1.22234 -9.66627,-1.61946 -11.2768,-7.24074 -0.326544,-1.13941 -0.708974,-1.40236 -1.77154,-1.09803 -4.79104,1.37209 -7.49385,-1.14604 -6.51225,-6.25449 1.33645,0.683897 1.62269,2.57635 3.31703,2.71463 2.72036,0.222831 4.92413,-0.915146 6.82124,-2.64459 1.92469,-1.75399 3.79851,-3.53789 6.30088,-4.43834 1.07063,-0.384759 0.844571,-0.970138 0.315617,-1.60048 -0.404284,-0.482024 -0.86732,-0.916579 -1.3223,-1.35364 -1.4844,-1.42422 -2.85775,-2.87244 -1.26963,-5.0617 1.38696,-1.91287 3.60936,-3.01054 6.3994,-1.04412z"/>
  <path class="fil4" d="M149.284 138.548c1.30134,-1.01187 2.69331,-1.36869 4.24364,-0.590573 2.51938,2.35495 2.86832,4.94974 1.03229,7.6753 -0.465902,0.323678 -0.931805,0.647893 -1.39771,0.971571 -1.1824,0.477725 -2.22938,0.0256148 -3.27242,-0.474859 -2.58584,-2.46063 -2.76264,-4.68482 -0.605799,-7.58144z"/>
  <path class="fil5" d="M85.7522 145.664c-0.484352,0.164436 -0.968705,0.328872 -1.45359,0.493309 -1.1815,1.43228 -2.33184,0.401955 -3.48916,-0.0440646l-0.121805 0.0161212 -0.1227 -0.00232862c-1.82367,-2.42463 -2.13373,-4.94258 -0.467694,-7.58198 1.3986,-0.577318 2.82425,-0.897234 4.3289,-0.448348 2.84217,1.97538 3.24412,4.27015 1.32606,7.56729z"/>
  <path class="fil0" d="M0.499578 57.0094c-0.000537373,-1.09284 -0.000537373,-2.18621 -0.000895622,-3.27869 0.835615,-1.72551 1.58238,-3.52033 3.74782,-4.73515 -0.844034,2.34922 -1.18867,4.37117 -0.551166,6.54789 0.694823,2.37304 2.14125,3.50242 4.85875,3.40193 -3.38187,2.39292 -5.7198,1.73088 -8.05451,-1.93598z"/>
  <path class="fil6" d="M173.026 146.141c-0.506205,0.000537373 -1.01277,0.00143299 -1.51897,0.00197037 -1.77387,-1.23363 -1.89621,-2.80527 -0.370608,-4.7579 0.47862,0.00895622 0.95742,0.0184498 1.4355,0.027406 2.4137,1.06633 3.08345,2.85775 1.66783,4.46682 -0.336933,0.383147 -0.717393,0.600604 -1.21375,0.261701z"/>
  <path class="fil7" d="M61.1196 140.535c-0.578213,-1.14783 0.753039,-1.81901 0.701451,-2.90235 1.84265,2.73129 2.27291,6.05261 4.04069,8.85645 -1.36547,0.201873 -2.79613,0.714169 -2.50434,-1.7436 0.0659178,-0.556002 -0.414673,-1.36923 -1.30134,-1.45019 -0.350188,-0.907265 -0.486323,-1.8869 -0.936462,-2.76031z"/>
  <path class="fil8" d="M111.375 142.283c-2.32933,1.16771 -0.671179,2.70281 -0.61565,4.2517 -0.581975,0.245042 -1.43604,0.034571 -2.28527,0.0408404 0.717035,-2.84933 0.7242,-5.67448 0.0711124,-8.50465 0.670642,-0.331738 1.33698,-0.361652 1.99724,0.0299138 0.154584,1.29955 -1.25584,2.94033 0.832749,3.81839 0.132194,0.0809642 0.176258,0.162108 0.132194,0.243072 -0.0437063,0.0798895 -0.0877709,0.12073 -0.132373,0.12073z"/>
  <path class="fil7" d="M130.321 140.067c-0.465365,-0.96351 0.289107,-1.59331 0.666343,-2.70334 1.61713,3.13217 2.20896,6.36393 3.90384,9.18442 -0.882904,0 -1.72837,0 -2.62417,0 0.802835,-1.1421 0.0535582,-1.99759 -0.426495,-2.89805 -0.286778,-0.15548 -0.491517,-0.38673 -0.631772,-0.678165 -0.456051,-0.91855 -0.540418,-1.95174 -0.88774,-2.90486z"/>
  <path class="fil9" d="M120.968 142.816c-0.244147,1.26784 -0.595768,2.55216 0.662581,3.70286 -1.0142,0 -1.92236,0 -2.69242,0 0.619412,-2.82837 0.806239,-5.62648 -0.036004,-8.43783 0.626577,-0.3355 1.24742,-0.404284 1.85537,0.0435272l0.151181 -0.07774c0.927506,1.57862 0.906548,3.16871 0.0592902,4.76919z"/>
  <path class="fil10" d="M179.613 146.568c-1.24921,0 -2.01999,0 -2.83608,0 0.998977,-2.4669 0.295734,-4.97912 0.47862,-7.43975 0.031705,-0.42757 -0.985721,-1.16592 0.375803,-1.22127 0.800507,-0.0327798 1.11236,0.246833 1.09051,1.07009 -0.047468,1.80002 -0.00376161,3.60237 -0.0327798,5.40293 -0.0116431,0.762353 -0.0177333,1.49354 0.923923,2.188z"/>
  <path class="fil11" d="M120.968 142.816c-0.324215,-1.58579 -0.495279,-3.17355 -0.0592902,-4.76865 0.981602,-0.226055 1.99186,-0.634996 2.77159,0.432764 1.1455,1.01707 1.17112,2.13695 0.309527,3.33942 -0.709512,0.749277 -1.76832,0.565317 -2.60805,0.970138l-0.205635 0.028839 -0.208143 -0.00250774z"/>
  <path class="fil12" d="M171.137 141.386c-0.336933,1.62179 -0.916042,3.26257 0.370608,4.7579 -0.792446,1.00471 -1.79948,0.243609 -2.57724,0.446915 1.15069,-2.86062 0.719363,-5.69329 0.318483,-8.52417 0.637862,-0.330305 1.27304,-0.347322 1.90427,0.0184498 -0.19632,1.09947 -0.459812,2.19857 -0.0161212,3.3009z"/>
  <path class="fil13" d="M92.9829 138.083c-0.217099,1.22843 -0.301825,2.45687 -0.00286599,3.6853 0.186289,0.22086 0.164974,0.418972 -0.0639474,0.59523l-0.0435272 -0.0336754c-0.422734,1.09857 -0.245042,2.21326 -0.0890248,3.32741 -0.0526626,0.317588 1.02137,0.704317 0.000537373,0.92464 -0.667238,0.144016 -1.39144,0.0270478 -2.00046,0.0270478 0.865887,-2.90235 0.779191,-5.70708 0.165869,-8.52793 0.677627,-0.360219 1.35579,-0.358249 2.03342,0.00197037z"/>
  <path class="fil13" d="M51.1674 138.056c-1.81704,3.07682 -1.95872,5.67251 0.288569,8.20103 -2.03646,-0.507101 -2.9697,-1.481 -3.12411,-3.19898 -0.180557,-2.00404 0.184319,-3.77558 2.83554,-5.00205z"/>
  <path class="fil14" d="M149.284 138.548c-1.16359,2.75171 -1.07725,5.36925 0.836511,7.79048l0.0141508 -0.0397656c-1.99007,0.729394 -2.09755,-1.20766 -2.59193,-2.10525 -1.22736,-2.22705 -0.384222,-4.52558 1.74127,-5.64546z"/>
  <path class="fil15" d="M74.9854 138.09c-0.594335,2.82318 -0.684434,5.62791 0.113744,8.44553 -0.662581,0 -1.51288,0 -2.2464,0 0.707541,-2.85775 0.856931,-5.65639 0.0207784,-8.47061 0.106221,-0.0639474 0.2128,-0.127895 0.319021,-0.19238 0.604186,0.021674 1.23936,-0.213874 1.79286,0.217457z"/>
  <path class="fil16" d="M98.4636 145.646c-0.00752322,0.327977 0.977303,0.688554 0.0596484,0.942194 -0.645922,0.178587 -1.38105,0.034571 -2.29906,0.034571 0.950255,-1.45216 1.11612,-2.86689 0.481486,-4.32979 -0.178587,-0.0858006 -0.247371,-0.185752 -0.20671,-0.300392 0.043169,-0.121805 0.0904578,-0.182528 0.143658,-0.182528 0.751606,-1.23739 0.350188,-2.48822 0.0435272,-3.73833 0.677269,-0.334067 1.3497,-0.372579 2.01461,0.034571 -0.0578572,0.148852 -0.116073,0.297705 -0.17393,0.446915 -0.351442,2.36104 -0.240922,4.72638 -0.0632309,7.09279z"/>
  <path class="fil12" d="M139.834 146.218c-3.02093,-1.34021 -3.8587,-4.75504 -1.87257,-6.97869 0.212262,-0.237519 0.380998,-0.754472 0.866783,-0.433123 0.393357,0.260268 0.302362,0.57481 0.112311,0.986259 -1.05433,2.2833 -0.558152,4.38192 0.893472,6.42555z"/>
  <path class="fil17" d="M85.7522 145.664c0.622815,-2.70908 1.0606,-5.38537 -1.32552,-7.56729 2.1554,-0.082039 2.85506,1.53742 3.18394,3.12465 0.362369,1.75076 0.291256,3.6081 -1.85842,4.44264z"/>
  <path class="fil18" d="M163.589 146.088c0.0729036,0.0193454 0.148852,0.0322424 0.218532,0.0592902 0.069142,0.0270478 0.132731,0.067709 0.198649,0.102817 -0.488651,0.429898 -2.57438,0.594872 -2.87244,0.164436 -0.0564242,-0.0815016 0.391028,-0.511937 0.605619,-0.780982 0.403388,-2.54124 -0.262596,-5.13263 0.35789,-7.66437 1.33555,-0.307198 1.10197,0.668313 1.16682,1.41562 0.194171,2.23081 -0.42148,4.50032 0.324932,6.70319z"/>
  <path class="fil12" d="M80.0973 138.545c-0.700914,2.58011 -0.384401,5.0977 0.467694,7.58198 -2.97526,-2.05975 -3.21564,-5.95535 -0.467694,-7.58198z"/>
  <path class="fil17" d="M154.56 145.633c0.831674,-2.7166 0.701451,-5.30387 -1.03229,-7.6753 1.94923,0.601858 2.93925,1.97538 2.96451,3.96259 0.0198828,1.53348 0.107116,3.20507 -1.93221,3.71271z"/>
  <path class="fil14" d="M173.026 146.141c2.15397,-1.49282 2.00476,-3.04744 -0.45408,-4.72799 1.55964,-0.146882 2.85506,0.248266 3.25684,1.93938 0.327977,1.37962 -0.237519,2.47908 -1.5213,3.0976 -0.410732,0.197753 -1.03928,0.538448 -1.28146,-0.30899z"/>
  <path class="fil8" d="M111.375 142.283c0,-0.121805 0,-0.243072 0,-0.364876 1.43085,-0.605261 1.81417,0.746949 2.43215,1.43031 0.820927,0.907623 1.4081,2.02608 2.10847,3.07306 -1.21608,0.647893 -1.91,-0.0250774 -2.48625,-1.04071 -0.612605,-1.07976 -1.11648,-2.23332 -2.05438,-3.09778z"/>
  <path class="fil19" d="M163.589 146.088c-1.25029,-1.91 -0.265821,-4.038 -0.593439,-6.0356 -0.118939,-0.724558 0.5114,-1.82743 -0.90422,-1.96535 -0.181453,0.256864 -0.364518,0.25776 -0.548837,0.00340336 -0.708079,-0.328872 -1.59439,0.844034 -2.40009,-0.502802 2.3639,0 4.54689,0 6.72934,0 0.277643,0.530387 -0.132194,0.723662 -0.467335,0.954016 -1.43174,-0.811792 -2.17117,-0.52985 -2.05026,1.24886 0.142941,2.09611 -0.263313,4.21372 0.234832,6.29748z"/>
  <path class="fil20" d="M141.399 10.9175c2.22562,-1.09911 4.11556,-0.238415 5.01136,2.30139 -1.85304,-0.561018 -3.101,-1.97198 -5.01136,-2.30139z"/>
  <path class="fil21" d="M126.986 130.935c3.45406,-0.588065 6.93892,-0.456946 10.4181,-0.450677 0.418435,0.48489 -0.0587528,0.40715 -0.281046,0.408583 -3.37864,0.0207784 -6.75783,0.030272 -10.137,0.0420942z"/>
  <path class="fil22" d="M123.529 141.805c0.684434,-1.07922 0.468768,-2.19947 0.150644,-3.32419 0.77113,-0.161212 1.3583,-0.010031 1.51897,0.883441 0.211367,1.17291 0.311856,2.30426 -1.02835,2.93119 -0.229817,-0.142941 -0.5483,-0.169631 -0.641265,-0.490443z"/>
  <path class="fil23" d="M61.1196 140.535c1.51145,0.512833 1.32283,1.6028 0.937,2.75977 -0.438855,0.00376161 -0.878247,0.00752322 -1.3171,0.0118222 -0.366847,-0.237519 -0.343202,-0.528954 -0.117506,-0.848333 -0.0687838,-0.701988 -0.0175542,-1.37263 0.497607,-1.92326z"/>
  <path class="fil24" d="M130.321 140.067c1.06167,0.580542 0.92267,1.75255 1.3128,2.66394 -0.733693,0.725633 -1.49139,0.65255 -2.26539,0.0687838l0.0204202 0.034571c0.0716497,-0.844034 0.00232862,-1.7436 0.88577,-2.27112 0.0155838,-0.165869 0.0311676,-0.331201 0.0463932,-0.496175z"/>
  <path class="fil25" d="M161.543 138.09c0.182886,-0.000895622 0.365951,-0.00232862 0.548837,-0.00340336 -0.209934,2.51132 0.446378,5.06295 -0.351621,7.54687 -0.119118,-2.51311 0.22086,-5.03823 -0.197216,-7.54346z"/>
  <path class="fil26" d="M98.4636 145.646c-0.6015,-2.36964 -0.694286,-4.73515 0.0625144,-7.09297 -0.0207784,2.36408 -0.041736,4.72853 -0.0625144,7.09297z"/>
  <path class="fil27" d="M175.767 31.5089c-1.29059,0.818957 -2.85685,0.073441 -4.18058,0.768802 1.00328,-1.24832 2.49341,-1.0056 3.79815,-1.31191 0.127537,0.181095 0.255073,0.362189 0.382431,0.543105z"/>
  <path class="fil28" d="M129.369 142.799c0.755009,-0.0227488 1.51002,-0.046035 2.26539,-0.0687838 0.069142,0.306661 0.137926,0.613322 0.207068,0.919445 -1.12078,-0.0782773 -2.23691,-0.105683 -3.26024,0.442616 -0.353054,-0.940761 0.670104,-0.78958 0.787789,-1.29328z"/>
  <path class="fil29" d="M113.57 138.536c0.665805,-1.01187 1.29435,-1.24259 2.04972,-0.631234 0.326006,0.264029 0.427032,0.73029 0.115714,1.02602 -0.99629,0.947926 -1.27447,-0.564063 -2.16543,-0.39479z"/>
  <path class="fil30" d="M67.8253 145.477c0.490443,0.041736 1.00811,0.204739 1.1138,0.688196 0.138463,0.631772 -0.527521,0.676732 -0.910489,0.772563 -0.545075,0.135955 -0.899563,-0.247908 -0.94506,-0.761637 -0.0397656,-0.447453 0.285703,-0.683539 0.741754,-0.699122z"/>
  <path class="fil31" d="M69.5905 138.091c-0.0918908,-0.16157 -1.15213,-0.124133 -0.27012,-0.386192 1.12275,-0.334067 2.43126,-0.0426316 3.66023,-0.0213158 0.158346,0.0757696 0.220323,0.165869 0.186289,0.269582 -0.036004,0.110878 -0.0772026,0.165869 -0.123238,0.165869 0,0 -0.169273,-0.0544538 -0.169273,-0.0544538 -0.74874,0.1227 -1.57719,-0.0555286 -2.19051,0.579109 -0.375266,-0.163003 -0.732619,-0.361115 -1.09338,-0.552599z"/>
  <path class="fil32" d="M60.3234 146.551c-0.82039,0 -1.55265,0 -2.31518,0 1.07349,-1.30617 1.07349,-1.30617 2.31518,0z"/>
  <path class="fil33" d="M129.013 146.577c-0.617979,0 -1.2356,0 -1.88439,0 0.0342128,-0.804268 1.17022,-0.870544 0.835973,-1.82134 0.840452,0.417539 0.115714,1.49569 1.04841,1.82134z"/>
  <path class="fil34" d="M54.5118 146.432c-0.651654,1.03606 -1.56304,0.543105 -2.45633,0.234653 0.835078,-0.148315 1.67069,-0.297167 2.50577,-0.445482l-0.0494383 0.210829z"/>
  <path class="fil35" d="M80.8091 146.113c1.16735,-0.298063 2.31321,1.0606 3.48952,0.0440646 -1.18437,1.66066 -2.34026,1.06866 -3.48952,-0.0440646z"/>
  <path class="fil36" d="M69.5905 138.091c0.450319,0.0146882 0.903862,0.0222114 1.09338,0.552599 -0.0549912,1.04591 -0.109982,2.09199 -0.164974,3.1379 -0.838839,0.0299138 -0.592364,-0.47253 -0.452647,-0.92267 -0.0202411,-0.946493 0.171243,-1.92935 -0.475754,-2.76783z"/>
  <path class="fil37" d="M123.529 141.805c0.213695,0.163541 0.42757,0.327081 0.641265,0.490443 -0.802835,0.879142 -1.83925,0.444049 -2.78915,0.494742 0.53182,-0.729215 1.51665,-0.471455 2.14788,-0.985184z"/>
  <path class="fil38" d="M96.6423 141.809c0.0213158,0.161212 0.0420942,0.322245 0.0635892,0.482919 -1.26301,0.0236444 -2.52601,0.047468 -3.78902,0.0711124 0.0213158,-0.198649 0.0426316,-0.39676 0.0639474,-0.59523 1.2202,0.0141508 2.44057,0.0279434 3.66148,0.0411986z"/>
  <path class="fil39" d="M144.343 139.722c-0.402851,-0.837944 -1.21321,-1.05504 -0.932163,-1.82277 0.0313468,-0.084905 0.43975,-0.129865 0.604724,-0.0506922 0.728857,0.348934 0.69142,0.944702 0.327439,1.87346z"/>
  <path class="fil40" d="M150.135 146.298c0,0 -0.0141508,0.0397656 -0.0141508,0.0397656 1.01366,0.0886666 2.02751,0.177333 3.04171,0.265821 -1.09714,0.770235 -2.1203,0.806776 -3.02756,-0.305586z"/>
  <path class="fil41" d="M143.124 146.581c-0.681568,0.876814 -1.56626,0.314184 -2.38862,0.319379 0.655953,-0.734052 1.7341,-0.0918908 2.40188,-0.741754 0.160675,0.0990558 0.211904,0.19435 0.154943,0.286241 -0.0562451,0.0906369 -0.112311,0.136135 -0.168198,0.136135z"/>
  <path class="fil42" d="M130.275 140.562c-0.295197,0.7568 -0.590573,1.51414 -0.88577,2.27112 -0.534149,-1.08066 -0.367205,-1.88779 0.88577,-2.27112z"/>
  <path class="fil43" d="M171.154 138.085c-0.634638,-0.00609023 -1.26963,-0.0123596 -1.90427,-0.0184498 0.749277,-0.579109 1.66926,-0.334067 2.4678,-0.325648 0.36828,0.00376161 -0.101922,0.311318 -0.334067,0.365414 -0.0711124,0.0161212 -0.152614,-0.0132552 -0.229458,-0.0213158z"/>
  <path class="fil44" d="M110.543 138.1c-0.665805,-0.010031 -1.33125,-0.0198828 -1.99724,-0.0299138 0.725633,-0.678702 1.65869,-0.269224 2.46726,-0.348755 0.435989,-0.043169 0.00429898,0.319379 -0.236982,0.391028 -0.0700376,0.0207784 -0.154763,-0.00716497 -0.233041,-0.0123596z"/>
  <path class="fil39" d="M92.7834 145.658c-0.56872,-1.12508 -0.692495,-2.23834 0.0890248,-3.32741 -0.0297346,1.10896 -0.059111,2.21846 -0.0890248,3.32741z"/>
  <path class="fil45" d="M98.7 138.106c-0.671537,-0.011464 -1.34307,-0.0232862 -2.01461,-0.034571 0.729932,-0.626577 1.85591,-0.55636 2.39865,-0.32314 0.707004,0.303258 -0.226234,0.213695 -0.384043,0.357711z"/>
  <path class="fil46" d="M54.5118 146.432l0.108012 -0.0858006 -0.0587528 -0.125208c0.343561,-0.49904 0.687121,-0.997544 1.32803,-1.92899 0.156017,1.56895 0.0370787,2.30641 -1.37729,2.14z"/>
  <path class="fil47" d="M92.9829 138.083c-0.678165,-0.000537373 -1.35597,-0.000895622 -2.03414,-0.00143299 -0.076307,0.000895622 -0.154943,0.0141508 -0.228384,0 -0.222831,-0.0435272 -0.451214,-0.344098 -0.25776,-0.365414 0.816091,-0.0900996 1.64938,-0.030272 2.47586,-0.0175542 0.0621562,0.000895622 0.179662,0.0797103 0.175363,0.0943985 -0.0293764,0.101205 -0.0840093,0.194171 -0.13094,0.290002z"/>
  <path class="fil48" d="M143.124 146.581c0.0152256,-0.140254 0.0193454,-0.281046 0.0132552,-0.422196 0.507638,-0.430257 0.596126,-1.25351 1.41992,-1.51091 0.25973,1.25871 0.00286599,2.0284 -1.43317,1.93311z"/>
  <path class="fil49" d="M120.757 138.125c-0.618516,-0.0146882 -1.23703,-0.028839 -1.85537,-0.0435272 -0.226951,-0.0558868 -0.763965,-0.244505 -0.403388,-0.351621 0.712198,-0.212442 1.60334,-0.271194 2.25876,0.395148z"/>
  <path class="fil13" d="M54.5996 138.187c1.21034,-0.387625 1.56393,0.0526626 1.21428,1.22181 -0.576422,-0.252207 -0.933238,-0.689091 -1.21428,-1.22181z"/>
  <path class="fil50" d="M73.0432 138.119c-0.0351084,-0.14312 -0.0558868,-0.288569 -0.0630518,-0.43563 0.824689,-0.0198828 1.65027,-0.0582154 2.47389,-0.03887 0.115177,0.00286599 0.362548,0.306661 -0.0265104,0.418435 -0.138463,0.0397656 -0.294301,0.0198828 -0.442258,0.027406 -0.647176,0.00931447 -1.29471,0.0191663 -1.94207,0.0286599z"/>
  <path class="fil51" d="M165.405 138.541c0.155838,-0.317946 0.311318,-0.636071 0.467335,-0.954016 1.06203,0.369175 0.590036,1.47258 0.343202,1.67768 -0.462141,0.384938 -0.395865,-0.596126 -0.810538,-0.723662z"/>
  <path class="fil52" d="M70.2114 142.859c-0.0933238,0.577676 0.127537,1.2227 -0.385297,1.75219 -0.397656,-0.742112 -0.120372,-1.47348 -0.0644848,-2.1966 0.421838,-0.127178 0.627652,-0.0358249 0.449781,0.444408z"/>
  <path class="fil53" d="M60.622 142.459c0.0394074,0.283017 0.0782773,0.565317 0.117506,0.848333 -0.381535,-0.0435272 -0.659178,0.932701 -0.995215,0.249699 -0.283554,-0.576064 0.00985184,-1.18562 0.877709,-1.09803z"/>
  <path class="fil54" d="M70.2114 142.859c-0.149748,-0.148315 -0.300033,-0.296272 -0.449781,-0.444587 -0.128432,-0.563525 0.00752322,-1.07493 0.304332,-1.55498 0.150644,0.307557 0.301825,0.615113 0.452647,0.92267 0.152972,0.431869 0.0340336,0.785819 -0.307198,1.0769z"/>
  <path class="fil55" d="M267.141 94.7729c0.1759,0.60759 0.213337,0.995215 -0.110878,1.29758 -0.0702168,0.0653804 -0.358786,0.0397656 -0.395327,-0.0265104 -0.284808,-0.518028 0.0390491,-0.850662 0.506205,-1.27107z"/>
  <path class="fil56" d="M39.5428 123.145c-1.03408,-0.194708 -1.86486,-0.105683 -1.84785,-0.653983 0.0261522,-0.841168 0.639832,-0.235011 0.987692,-0.108012 0.187185,0.0686046 0.32314,0.275314 0.860155,0.761995z"/>
 </g>
</svg>
