<?xml version="1.0" encoding="UTF-8"?>
<!DOCTYPE svg PUBLIC "-//W3C//DTD SVG 1.1//EN" "http://www.w3.org/Graphics/SVG/1.1/DTD/svg11.dtd">
<!-- Creator: CorelDRAW -->
<svg xmlns="http://www.w3.org/2000/svg" xml:space="preserve" width="299px" height="166px" style="shape-rendering:geometricPrecision; text-rendering:geometricPrecision; image-rendering:optimizeQuality; fill-rule:evenodd; clip-rule:evenodd"
viewBox="0 0 299.472 165.952"
 xmlns:xlink="http://www.w3.org/1999/xlink">
 <defs>
  <style type="text/css">
   <![CDATA[
    .fil0 {fill:#FEFEFE}
   ]]>
  </style>
 </defs>
 <g id="Layer_x0020_1">
  <metadata id="CorelCorpID_0Corel-Layer"/>
  <path class="fil0" d="M175.181 31.4038c8.45898,-0.727499 16.8721,-0.625381 25.0915,1.79723 12.5764,3.70658 21.2597,11.2992 24.1297,24.5671 0.42186,1.94988 3.39345,3.97919 6.26345,4.21574 0.782307,0.0646269 1.57532,-0.0169601 2.36031,0.0241012 0.897992,0.0473097 2.11608,-0.375978 2.47599,0.776058 0.302247,0.967439 -0.567717,1.716 -1.24898,2.36941 -0.735532,0.705718 -1.46857,1.41947 -2.2573,2.06378 -2.6788,2.18839 -4.30697,1.84222 -6.99184,-1.10669 -1.45303,-1.59603 -2.10198,-1.66655 -3.4038,0.0835508 -4.81756,6.47733 -11.3129,7.62526 -17.4223,2.68576 -5.17979,-4.18789 -3.90493,-12.1475 1.44357,-14.4886 1.55176,-0.679296 6.30219,0.169065 7.36532,1.28058 0.64002,0.668942 -0.016603,0.981543 -0.350092,1.33199 -1.14365,1.2022 -2.15393,2.56954 -1.04099,4.15005 1.1365,1.61407 2.95748,1.58711 4.7183,1.09348 4.58797,-1.28522 5.98905,-3.95599 4.36731,-8.87174 -1.98719,-6.02351 -6.19061,-10.0823 -11.9613,-12.5212 -8.83532,-3.73354 -18.1171,-4.99002 -27.6573,-5.35546 -6.92132,-0.264934 -13.7237,-0.0207092 -20.4539,1.54783 -4.23752,0.987613 -8.1296,2.79395 -11.4995,5.59451 -0.559326,0.464885 -1.46339,0.970653 -1.06706,1.8965 0.351877,0.821404 1.25933,0.441677 1.91346,0.439356 3.80567,-0.0141037 7.60776,-0.0539152 11.4814,1.18042 -1.92202,2.07074 -3.12173,4.37017 -4.19075,6.68942 -2.94945,6.39753 -8.19012,8.90851 -14.864,9.24307 -0.961726,0.0482024 -2.20499,-0.535582 -2.83126,0.490772 -0.670727,1.10009 0.487558,1.92006 1.02832,2.67309 2.62114,3.65267 2.25873,5.25263 -2.35513,8.16316 -1.29896,0.819619 -2.85447,1.28772 -4.3466,1.73689 -3.68962,1.11098 -5.89265,3.68195 -7.2973,7.10521 -0.148713,0.362232 -0.241904,0.768024 -0.468991,1.07223 -0.364196,0.488451 -0.314565,1.54408 -1.41286,1.13508 -0.928163,-0.345807 -1.10901,-0.999039 -0.831759,-1.88525 1.30378,-4.17093 2.24927,-8.45273 3.88743,-12.5198 3.91778,-9.7267 9.41821,-18.4524 17.1342,-25.5708 10.6393,-9.81507 22.9866,-16.5854 37.4213,-18.7779 12.3935,-1.88275 24.4613,0.0614134 36.2053,4.315 11.0171,3.99044 20.7572,9.92933 28.644,18.6716 4.43533,4.91664 7.66203,10.6686 10.6982,16.5036 3.83512,7.36925 7.45048,14.8517 12.2557,21.6748 4.11095,5.83784 9.01009,10.7852 15.3553,14.2033 2.2664,1.22059 4.69277,1.30985 7.11217,1.00654 2.31639,-0.290107 3.08781,-2.19035 3.52699,-4.18361 0.278146,-1.26076 0.419896,-2.55169 0.642341,-3.95259 1.54837,1.4184 1.30985,3.43629 2.23088,4.93896 0.520943,1.09402 0.12854,2.25409 0.244761,3.37542 -1.29575,4.47925 -4.01597,7.38532 -8.83442,7.93268 -0.594674,0.0674833 -0.984935,0.289036 -1.36181,0.766239 -2.18803,2.76753 -4.27573,3.37488 -7.60776,2.09537 -5.04143,-1.93613 -8.49379,-5.55148 -10.7223,-10.414 -0.325991,-0.711431 -0.508267,-1.49213 -0.994754,-2.12697 -0.0401686,-0.052487 -0.127468,-0.0689115 -0.359911,-0.186561 -0.743923,2.22391 -1.25273,4.50299 -2.13501,6.65318 -4.19878,10.2255 -9.59959,19.6541 -17.9432,27.139 -0.350985,0.315101 -0.666978,0.668942 -0.995647,1.00761 -1.03689,1.06849 -1.43982,2.28336 -0.651446,3.63856 0.888887,1.52712 2.38352,1.64709 3.93903,1.48606 1.55122,-0.161032 1.81901,-1.23327 1.80955,-2.54276 -0.00999753,-1.42554 0.873891,-1.22059 1.7751,-0.8946 2.2673,0.820511 4.40998,4.02722 4.51192,6.74101 0.103903,2.77931 -1.75849,5.71216 -4.29983,6.76886 -6.02298,2.50545 -11.7748,0.0141037 -14.0719,-6.25203 -1.3236,-3.61071 -0.798731,-3.7505 -4.92468,-2.33157 -2.23373,0.768024 -4.45479,1.59603 -6.57712,2.62399 -5.16604,2.5026 -5.91479,6.51857 -3.82745,11.4438 0.850325,2.00665 1.85347,2.02504 3.23563,0.336702 1.58247,-1.93238 3.14583,-1.8067 4.41837,0.355269 2.62257,4.45568 1.21113,7.75219 -4.04436,9.44606 -0.472383,0 -0.944766,0 -1.41715,0 -0.00285644,-0.716073 -0.548436,-0.779807 -1.06652,-1.01743 -5.83159,-2.67166 -8.03194,-8.2185 -5.70466,-14.2708 0.971545,-2.52616 0.922986,-2.59739 -1.7501,-2.62774 -5.12213,-0.058557 -10.3105,0.660372 -15.2569,-1.39537 -4.8638,-2.02129 -9.58781,-4.27573 -13.3303,-8.11264 -1.51248,-1.55069 -2.69862,-3.20831 -1.73457,-5.65503 1.01457,-2.57436 2.83555,-4.13594 5.43205,-4.63939 1.77046,-0.343487 2.89321,1.05153 3.78174,2.34621 0.375978,0.548436 -0.13943,1.19131 -0.819083,1.42643 -0.744816,0.257436 -0.74071,-0.277253 -0.735889,-0.761954 0.0103546,-1.09687 -0.0723036,-2.07931 -1.55872,-2.10198 -1.15114,-0.0174957 -2.36888,0.0774808 -2.89696,1.14632 -0.528084,1.06991 -0.369373,2.22284 0.599495,3.23099 2.27301,2.36406 4.91664,4.27109 7.9525,5.32672 12.8593,4.47032 25.6861,4.81238 37.9488,-1.79973 10.8391,-5.84445 18.7066,-14.5287 22.8431,-26.3012 1.24326,-3.53788 2.50956,-7.07343 3.31971,-10.7541 0.190846,-0.86675 0.241904,-1.68208 0.250831,-2.63721 -1.46946,0.0637342 -1.74814,1.27344 -2.33299,2.09859 -2.43261,3.4354 -5.23656,6.44769 -9.1231,8.27992 -2.09305,0.986363 -4.26537,1.2995 -6.83492,0.983864 1.06188,-1.57479 2.62917,-2.23427 3.52699,-3.6532 1.61496,-2.55115 2.39441,-5.28227 2.45064,-8.19869 0.0769453,-3.99508 0.190846,-7.99088 -0.375086,-11.9874 -0.53094,-3.7505 0.416683,-7.501 0.408649,-11.2628 -0.000892636,-0.510588 0.263506,-1.18988 -0.384905,-1.47713 -0.863001,-0.382048 -1.03546,0.505411 -1.37698,0.94191 -1.97398,2.52134 -4.00276,5.00733 -5.83409,7.63043 -3.22242,4.61529 -3.15386,8.02248 0.0410613,12.6808 0.216375,0.315458 0.599852,0.631451 0.235299,1.00511 -0.401508,0.411505 -0.854432,0.122291 -1.29575,-0.0633772 -4.9045,-2.06235 -7.01023,-6.28505 -8.35311,-11.0073 -1.91595,-6.73619 1.47606,-11.6605 5.89586,-16.0648 2.69005,-2.68059 4.8247,-5.45954 4.97198,-9.48998 0.176206,-4.80381 -2.55633,-7.94072 -5.84677,-10.7168 -6.29505,-5.31065 -12.899,-10.2075 -20.5181,-13.5008 -6.75512,-2.92017 -13.745,-4.82363 -21.1387,-5.5979 -7.93125,-0.83033 -15.5565,0.353841 -23.2205,1.94845 -0.722678,0.150141 -1.02028,0.634307 -1.5182,0.95887 -0.791233,1.08687 -2.23052,0.147821 -3.06085,0.964047 1.0567,-0.637878 2.29336,-0.19763 3.44397,-0.422039z"/>
  <path class="fil0" d="M299.472 102.657c-0.165852,-0.00606993 -0.331525,-0.0126754 -0.497913,-0.0192809 0.00232085,-1.24898 0.00464171,-2.49778 0.00749815,-3.74675 0.163352,-0.00428465 0.326883,-0.00856931 0.490236,-0.0126754 0.000178527,1.25969 0.000178527,2.51902 0.000178527,3.77871z"/>
  <path class="fil0" d="M0.497913 56.8193c-0.165852,0.00660551 -0.331525,0.013211 -0.497913,0.0198165 0,-1.10205 0,-2.20445 0,-3.3065 0.165852,0.00606993 0.331525,0.0126754 0.496841,0.0189239 0.82069,1.08919 0.820154,2.17857 0.00107116,3.26776z"/>
  <path class="fil0" d="M48.2241 127.252c0.834258,-0.451496 0.488451,-1.28379 0.489343,-1.89792 0.0349913,-18.2541 -0.0283858,-36.5087 0.0774808,-54.7624 0.016603,-2.86626 -1.06759,-4.36785 -4.1704,-4.62725 0.143536,-0.209234 0.286715,-0.418468 0.430251,-0.627702 2.37066,0 4.74293,0.0496306 7.11181,-0.0212447 1.17096,-0.0349913 1.06706,0.723214 1.3136,1.48231 2.75718,8.49486 2.95177,17.2418 2.84501,26.0578 -0.110508,9.12399 0.117114,18.2523 0.0203521,27.3766 -0.026422,2.49778 1.03778,3.79495 3.1926,4.54691 2.31211,0.806765 4.7183,1.20542 7.13824,1.36698 3.61643,0.240833 5.39706,-1.52248 5.41027,-5.46615 0.0221374,-6.44716 -0.118542,-12.8948 -0.174243,-19.3429 -0.0326705,-3.77639 0.0660551,-7.55724 -0.0921201,-11.3279 -0.0731962,-1.74528 0.736961,-1.80777 1.93988,-1.46339 1.73975,0.49827 3.30597,1.39823 4.88469,2.26783 1.01653,0.560219 0.723571,1.47749 0.724642,2.29515 0.0151748,9.20665 0.00660551,18.4133 0.0108902,27.6194 0.00142822,3.64463 1.53712,5.16604 5.1855,5.01537 1.32771,-0.0548079 2.66738,-0.251366 3.96402,-0.548436 5.6395,-1.29147 6.40984,-2.29461 6.40931,-8.0905 -0.000535582,-14.3997 0.0567717,-28.8004 -0.049095,-43.1995 -0.0207092,-2.81091 1.1715,-5.13409 2.06985,-7.60776 0.116757,-0.321171 0.493628,-0.778915 0.754278,-0.781235 2.47849,-0.0241012 4.97716,-0.294213 7.7854,0.456851 -3.76371,0.934233 -3.01265,3.7164 -3.01408,6.13866 -0.0123184,17.5474 0.0155319,35.0949 -0.0307067,52.6423 -0.00714109,2.75003 -0.136573,5.38153 3.57626,5.88926 -20.3537,0 -40.7074,0 -61.3323,0 1.1781,-1.23666 3.11334,-0.692507 3.44968,-2.47135 -0.244047,-0.329026 -0.242976,-0.638414 0.0796232,-0.919951z"/>
  <path class="fil0" d="M48.2241 127.252c-0.026422,0.307067 -0.0533797,0.614134 -0.0798017,0.921022 -3.20349,-0.157283 -6.40699,0.309923 -9.62744,-0.351877 -1.54515,-0.317422 -2.6065,1.19453 -3.54502,2.298 -3.51288,4.12844 -1.89221,9.69028 1.82526,14.3132 2.32675,2.89357 5.13123,5.49775 5.88408,9.43856 0.625381,3.27437 -1.10758,7.59312 -4.10291,9.57406 -2.99283,1.97915 -7.52742,1.94416 -10.1994,-0.0783735 -1.51445,-1.14597 -2.13733,-3.42076 -1.28575,-5.31868 0.256544,0.778022 0.621096,1.38305 0.627702,1.99236 0.0249938,2.29051 1.86579,2.4926 3.2683,2.42886 1.56015,-0.0708753 3.29419,-0.573965 3.84316,-2.54366 0.931555,-3.34185 -0.0594496,-6.01262 -3.0255,-7.807 -5.69288,-3.44343 -9.22843,-15.7718 -1.26076,-21.9951 0.50309,-0.392939 1.20506,-0.644841 0.945123,-1.40626 -0.275825,-0.810157 -1.06938,-0.542723 -1.63388,-0.449175 -4.70705,0.776951 -9.30591,1.88757 -12.9893,5.19211 -2.69469,2.41744 -5.06357,5.59647 -3.29419,8.6309 0.953157,1.63477 2.65649,2.10626 3.93617,3.20581 -2.81859,0.774273 -6.95399,-1.37038 -8.09711,-4.17325 -0.884781,-2.17 -1.5148,-4.31786 0.0539152,-6.46787 0.617347,-0.846041 0.412398,-1.58514 -0.316886,-2.29372 -1.60978,-1.56443 -1.15971,-2.96819 0.258865,-4.44676 3.80852,-3.97009 8.2776,-5.56291 13.8003,-4.63278 2.59507,0.436856 5.26388,0.71036 7.95357,0.643412 2.02736,-0.0505232 2.04289,-0.696256 1.27576,-2.22766 -1.27861,-2.55401 -3.89029,-3.55876 -5.89693,-5.24977 -8.04801,-6.78207 -13.823,-14.8735 -15.25,-25.5906 -0.551649,-4.14255 -1.00618,-8.20993 -2.5724,-12.258 -2.00932,-5.19407 -0.224766,-10.4674 2.03343,-15.3958 1.39823,-3.05139 3.21492,-5.96299 3.36417,-9.4357 0.176742,-4.10845 -1.61353,-5.90729 -5.7027,-5.89872 -0.768917,0.00142822 -1.53801,0 -2.49778,0 3.26401,-2.40619 6.96667,-1.5639 10.2728,0.931555 3.87654,2.92571 5.83302,6.86991 4.33946,11.9047 -0.160675,0.542187 -0.362232,1.12901 0.0906919,1.5464 0.389725,0.359018 0.851575,0.0921201 1.27576,-0.179063 3.85387,-2.46278 8.11781,-3.11798 12.6067,-2.94034 1.55872,0.0614134 3.46807,0.632522 4.25216,-1.51338 0.722143,-1.97683 0.86068,-3.93795 -0.773737,-5.72448 4.01115,1.43929 5.60112,7.66257 2.82466,10.6836 -3.03532,3.30275 -6.84527,3.65124 -11.0237,3.07692 -2.42976,-0.334025 -4.8081,-1.19595 -7.40549,-0.479881 -1.48927,0.410434 -2.50063,1.08402 -3.39666,2.2257 -4.39856,5.6054 -6.34325,12.1527 -6.09671,19.0699 0.306174,8.5893 3.6391,16.2551 9.19433,22.8638 3.01604,3.58804 5.77696,7.43156 9.686,10.173 0.447746,0.314029 0.92495,0.590033 1.35377,0.927271 0.744459,0.585212 1.78402,1.27915 2.38495,0.486487 0.498805,-0.658052 -0.490772,-1.56354 -1.16721,-2.05806 -5.72501,-4.1845 -7.8793,-10.3715 -9.23736,-16.8758 -1.36413,-6.53588 -0.728391,-12.9666 2.42744,-18.9541 1.48981,-2.82662 3.24598,-5.5181 5.92479,-7.44387 3.18975,-2.29336 6.70888,-1.51962 8.25385,1.81723 0.462921,0.999574 0.626809,1.97023 -0.179063,2.84215 -0.50916,0.550757 -1.0476,1.50213 -1.90542,1.00047 -0.892279,-0.521478 -0.102475,-1.1856 0.229586,-1.77563 0.428465,-0.761419 0.394367,-1.53801 -0.287607,-2.14215 -0.702326,-0.622525 -1.44107,-1.24416 -2.50581,-0.960834 -1.95327,0.519157 -3.23045,1.84919 -4.15719,3.55109 -3.18743,5.85337 -2.68809,11.9619 -0.94191,18.0288 2.73075,9.48587 7.55242,17.9929 12.927,26.1835 0.794803,1.21434 1.9272,2.40173 3.34185,3.11744z"/>
  <path class="fil0" d="M166.879 93.0663c-3.62053,-3.59322 -7.4121,-4.93092 -12.1504,-3.22295 -2.60739,0.939946 -3.64981,2.80252 -4.04436,5.22942 -0.532368,3.27758 -0.227622,6.59551 -0.251723,9.89541 -0.0410613,5.6636 0.113365,11.3318 -0.0562361,16.9906 -0.109616,3.65749 0.453995,6.69888 4.41319,8.13674 -5.49864,0 -10.9978,0 -16.4965,0 3.53413,-1.36609 4.5312,-3.9101 4.45193,-7.55063 -0.202093,-9.27842 -0.218696,-18.5677 0.00856931,-27.8447 0.0912274,-3.71497 -1.03635,-6.16847 -4.58512,-7.65079 1.04492,-0.0651625 2.0893,-0.186025 3.13405,-0.187097 18.5606,-0.0114257 37.1214,0.0169601 55.6819,-0.0448103 1.88525,-0.00606993 2.3887,0.345807 1.53051,2.15536 -0.58432,1.23148 -0.880497,2.59882 -1.39858,4.19111 -1.92917,-2.27015 -4.13791,-3.42969 -6.90579,-3.8619 -5.36028,-0.836936 -9.45123,1.9447 -9.45373,7.18501 -0.00374907,9.43945 -0.0249938,18.8794 -0.00803373,28.3191 0.00517729,2.86858 2.17714,4.01651 4.9361,5.29083 -6.1317,0 -11.6246,0 -17.1172,0 3.61018,-1.36609 4.51799,-4.00972 4.45711,-7.61008 -0.163888,-9.67332 -0.100689,-19.3515 -0.0255294,-29.0266 0.0192809,-2.47992 -0.921558,-4.1779 -3.02818,-5.39527 -0.943695,-0.545044 -1.35609,-0.313137 -1.65084,0.637164 -0.432393,1.39448 -0.91281,2.77324 -1.44125,4.3641z"/>
  <path class="fil0" d="M62.5294 84.6287c-2.29568,-12.7895 -5.67342,-24.9147 -9.40125,-36.9839 2.13179,2.20071 4.20342,4.43015 5.74858,7.03576 1.02975,1.73636 2.0386,2.71272 4.12594,1.06902 -0.103903,2.07467 -0.797303,3.76835 -0.655552,5.58326 0.213519,2.73914 1.56211,4.02829 4.43015,3.9758 3.12744,-0.0567717 4.42641,-1.28575 4.55959,-4.12594 0.117114,-2.4992 -1.06367,-4.53406 -2.14447,-6.61961 -0.204949,-0.395795 -0.802123,-0.736425 -0.457744,-1.21059 0.367409,-0.506303 0.997075,-0.359911 1.51248,-0.138002 2.31871,1.00047 3.27205,-0.240476 3.90403,-2.24552 0.515765,-1.6362 1.18792,-3.2242 1.81294,-4.82506 0.216732,-0.555934 0.498805,-1.08634 1.05902,-2.29086 0,2.53652 0,4.37445 0,6.21186 0.000535582,3.82459 0.000535582,3.82459 3.95081,3.03961 -0.0992612,1.45821 -1.2097,2.35192 -1.71458,3.49253 -2.49028,5.62522 1.21202,7.59776 5.53024,8.14334 2.19928,0.277788 4.53834,-4.18789 3.87618,-7.08771 -0.277788,-1.21577 -0.670727,-2.40708 -1.05474,-3.595 -0.150677,-0.465242 -0.360804,-0.933876 0.0878354,-1.28575 0.43275,-0.339559 0.910311,-0.107295 1.30789,0.155854 0.910311,0.601815 2.032,1.05956 2.65184,1.88757 1.22238,1.63299 2.14733,1.08741 3.20778,-0.0430251 1.43982,-1.53462 2.96677,-2.96587 5.01162,-4.07774 0.182812,1.32771 -0.732676,2.10769 -1.21773,2.92196 -3.5327,5.928 -5.95353,12.3605 -8.56324,18.6995 -1.72172,4.18272 -3.45575,8.37579 -4.61636,12.7695 -0.283501,1.07223 -0.849254,0.912631 -1.50249,0.260828 -1.1124,-1.11008 -2.19589,-2.25926 -3.38916,-3.27723 -3.50628,-2.99051 -12.0276,-3.38398 -16.856,1.51338 -0.316172,0.319207 -0.679296,0.592175 -1.20363,1.04617z"/>
  <path class="fil0" d="M126.562 130.498c-1.70244,-0.825153 -0.291892,-2.45011 -1.02778,-3.69855 -0.772309,0.561647 -1.54408,1.154 -2.34674,1.70047 -4.82077,3.28294 -10.5245,2.8534 -14.1224,-1.05242 -3.38577,-3.67534 -3.34292,-10.677 0.10301,-14.7483 2.16714,-2.56115 5.08214,-4.17647 7.7754,-6.06511 1.61496,-1.13222 3.20689,-2.27194 4.40891,-3.86387 0.73214,-0.96976 0.916381,-1.82616 -0.502554,-2.36174 -1.15293,-0.435428 -2.18375,-0.990469 -1.94041,-2.51902 0.15639,-0.982436 0.931912,-1.2263 1.71279,-1.32253 1.37127,-0.169601 2.52902,0.309388 3.10477,1.61407 0.901741,2.04146 0.861573,4.12559 -0.178527,6.11313 -1.14115,2.18035 -2.79877,3.97009 -4.51799,5.70609 -2.23088,2.25266 -4.12184,4.72115 -4.92468,7.87645 -0.747315,2.93802 0.440784,5.65789 2.94177,6.65121 2.49635,0.991541 5.23888,-0.172457 6.74137,-2.78931 1.30039,-2.26444 1.573,-4.79489 1.65602,-7.27517 0.19513,-5.8166 0.208341,-11.6416 0.155854,-17.4619 -0.0212447,-2.35799 -1.11526,-4.26716 -3.49021,-5.07732 -2.14536,-0.731605 -4.87612,0.315101 -6.18258,2.36263 -1.54176,2.41565 -0.643412,4.60832 0.72982,6.77118 0.403472,0.635736 1.49838,1.19167 0.930127,2.07324 -0.514873,0.798196 -1.58907,0.518086 -2.43315,0.468991 -1.93238,-0.111401 -3.4038,-1.07366 -4.48032,-2.65042 -3.84066,-5.62486 -0.512016,-12.9713 6.54677,-14.3 2.48028,-0.46667 5.03536,-0.470419 7.50243,0.107652 5.2969,1.2413 7.82646,4.88183 7.86091,11.2558 0.0407042,7.55438 0.0821226,15.1102 -0.0241012,22.663 -0.0548079,3.90725 -0.278146,7.74041 4.38481,9.37143 -2.53045,0.525763 -5.09106,0.0817655 -7.63222,0.239405 -0.917452,0.0580214 -1.86168,-0.212626 -2.75111,0.211019z"/>
  <path class="fil0" d="M216.519 90.4589c5.5422,0 11.0848,0 16.9428,0 -4.81042,2.04574 -4.85148,2.11001 -4.85148,7.21857 0,8.18351 0.084979,16.3679 -0.0387404,24.5496 -0.0539152,3.5734 0.0298141,6.78779 5.04429,7.04897 -0.14068,0.223338 -0.281538,0.447389 -0.422217,0.670727 -3.83691,0 -7.67435,0.00142822 -11.5113,-0.00464171 -0.152105,-0.000535582 -0.428823,-0.0514159 -0.437927,-0.110508 -0.469527,-3.15351 -2.06663,-0.784092 -2.89036,-0.443997 -8.31384,3.43022 -15.3883,-1.06902 -15.7715,-10.0329 -0.270647,-6.32915 1.30789,-12.2561 3.55537,-18.0704 1.32307,-3.42273 2.85626,-6.76975 3.68534,-10.3701 0.141751,-0.616455 0.238155,-1.19078 0.159603,-1.84401 -0.256544,-2.13412 -1.06367,-3.40148 -3.52145,-2.83216 -1.1058,0.256008 -2.31496,0.205485 -2.5308,-1.30646 -0.236727,-1.65798 1.01136,-1.94131 2.22998,-2.0802 3.758,-0.428465 6.47983,2.38441 6.89312,6.96721 0.410077,4.54406 -0.628238,8.89119 -1.67923,13.2382 -1.20452,4.98288 -1.9347,10.0082 -1.64281,15.1527 0.23762,4.18879 2.26069,6.93186 5.3726,7.21946 2.49867,0.231014 4.08631,-0.663586 4.98609,-2.99087 0.683045,-1.76563 0.933876,-3.63232 0.929592,-5.5356 -0.0141037,-6.29505 -0.107652,-12.5921 0.0340987,-18.8837 0.0798017,-3.5709 -0.298141,-6.61515 -4.53513,-7.55992z"/>
  <path class="fil0" d="M125.811 68.9074c-2.15822,-9.17398 0.916381,-16.8928 6.27523,-23.8996 3.47039,-4.53745 7.33944,-8.73373 11.7957,-12.3946 5.11838,-4.2045 6.66532,-9.62708 4.39945,-16.1999 1.59603,1.46107 2.67773,4.57191 2.93945,6.7669 0.565396,4.73776 -1.59371,8.56467 -3.95974,12.2718 -3.36827,5.27816 -7.76558,9.78062 -11.5141,14.7808 -4.15005,5.5356 -8.14531,11.1192 -9.31002,18.1748 -0.026065,0.160675 -0.333489,0.274932 -0.625917,0.499876z"/>
  <path class="fil0" d="M137.932 1.03492c-2.68005,1.17525 -3.22617,3.2758 -2.72933,5.5663 0.568252,2.61828 3.36167,2.27729 5.17604,3.36792 -2.81609,-0.0387404 -5.46508,0.247974 -7.95161,1.65977 -3.01604,1.71279 -4.23645,4.21378 -3.36167,7.48119 0.488451,1.8233 2.34103,2.6622 4.81667,2.25176 1.93059,-0.320278 2.47564,-1.59086 2.08502,-3.24598 -0.512016,-2.16714 0.38544,-2.20392 2.03253,-1.6637 2.68398,0.879961 4.71741,3.45486 4.67402,6.06172 -0.0410613,2.47564 -2.84876,5.53827 -5.74001,6.44912 -3.86708,1.21827 -9.63405,-1.61407 -11.2392,-7.21661 -0.325455,-1.13561 -0.706611,-1.39769 -1.76563,-1.09437 -4.77507,1.36752 -7.46887,-1.14222 -6.49054,-6.23364 1.33199,0.681617 1.61728,2.56776 3.30597,2.70558 2.71129,0.222088 4.90772,-0.912096 6.7985,-2.63578 1.91828,-1.74814 3.78585,-3.52609 6.27988,-4.42355 1.06706,-0.383477 0.841756,-0.966904 0.314565,-1.59514 -0.402936,-0.480417 -0.864429,-0.913524 -1.31789,-1.34913 -1.47946,-1.41947 -2.84822,-2.86286 -1.2654,-5.04482 1.38234,-1.90649 3.59732,-3.00051 6.37807,-1.04064z"/>
  <path class="fil0" d="M0.497913 56.8193c-0.000535582,-1.08919 -0.000535582,-2.17893 -0.000892636,-3.26776 0.83283,-1.71975 1.57711,-3.5086 3.73533,-4.71937 -0.841221,2.34139 -1.18471,4.3566 -0.549328,6.52606 0.692507,2.36513 2.13412,3.49074 4.84255,3.39059 -3.3706,2.38495 -5.70073,1.72511 -8.02766,-1.92952z"/>
  <path class="fil0" d="M60.9158 140.067c-0.576286,-1.144 0.750529,-1.81294 0.699113,-2.89268 1.83651,2.72218 2.26533,6.03244 4.02722,8.82692 -1.36091,0.2012 -2.78681,0.711788 -2.49599,-1.73778 0.065698,-0.554149 -0.413291,-1.36466 -1.297,-1.44536 -0.349021,-0.904241 -0.484702,-1.88061 -0.933341,-2.75111z"/>
  <path class="fil0" d="M111.004 141.809c-2.32157,1.16382 -0.668942,2.6938 -0.613598,4.23752 -0.580035,0.244225 -1.43125,0.0344558 -2.27765,0.0407042 0.714645,-2.83983 0.721786,-5.65557 0.0708753,-8.4763 0.668406,-0.330633 1.33253,-0.360447 1.99058,0.0298141 0.154069,1.29522 -1.25165,2.93053 0.829973,3.80567 0.131753,0.0806943 0.175671,0.161567 0.131753,0.242262 -0.0435607,0.0796232 -0.0874784,0.120327 -0.131932,0.120327z"/>
  <path class="fil0" d="M129.887 139.6c-0.463814,-0.960298 0.288143,-1.588 0.664122,-2.69433 1.61174,3.12173 2.2016,6.34272 3.89082,9.15381 -0.879961,0 -1.72261,0 -2.61542,0 0.800159,-1.13829 0.0533797,-1.99094 -0.425073,-2.88839 -0.285822,-0.154962 -0.489879,-0.38544 -0.629666,-0.675904 -0.45453,-0.915488 -0.538617,-1.94523 -0.884781,-2.89518z"/>
  <path class="fil0" d="M120.565 142.34c-0.243333,1.26362 -0.593782,2.54366 0.660372,3.69052 -1.01082,0 -1.91595,0 -2.68344,0 0.617347,-2.81895 0.803551,-5.60772 -0.035884,-8.40971 0.624488,-0.334382 1.24326,-0.402936 1.84919,0.0433821l0.150677 -0.0774808c0.924414,1.57336 0.903527,3.15815 0.0590925,4.75329z"/>
  <path class="fil0" d="M179.014 146.08c-1.24505,0 -2.01325,0 -2.82662,0 0.995647,-2.45868 0.294749,-4.96252 0.477025,-7.41495 0.0315993,-0.426145 -0.982436,-1.16203 0.37455,-1.2172 0.797838,-0.0326705 1.10865,0.246011 1.08687,1.06652 -0.0473097,1.79402 -0.00374907,3.59036 -0.0326705,5.38492 -0.0116043,0.759812 -0.0176742,1.48856 0.920844,2.18071z"/>
  <path class="fil0" d="M170.567 140.914c-0.33581,1.61639 -0.912989,3.2517 0.369373,4.74204 -0.789805,1.00136 -1.79349,0.242797 -2.56865,0.445426 1.14686,-2.85108 0.716966,-5.67431 0.317422,-8.49576 0.635736,-0.329204 1.26879,-0.346164 1.89792,0.0183883 -0.195666,1.0958 -0.45828,2.19124 -0.0160675,3.2899z"/>
  <path class="fil0" d="M92.673 137.623c-0.216375,1.22434 -0.300818,2.44868 -0.00285644,3.67302 0.185668,0.220124 0.164424,0.417575 -0.0637342,0.593246l-0.0433821 -0.0335631c-0.421324,1.09491 -0.244225,2.20588 -0.0887281,3.31632 -0.052487,0.316529 1.01796,0.701969 0.000535582,0.921558 -0.665014,0.143536 -1.3868,0.0269576 -1.99379,0.0269576 0.863001,-2.89268 0.776594,-5.68806 0.165316,-8.49951 0.675369,-0.359018 1.35127,-0.357055 2.02664,0.0019638z"/>
  <path class="fil0" d="M50.9969 137.596c-1.81098,3.06656 -1.9522,5.6536 0.287607,8.17369 -2.02968,-0.505411 -2.9598,-1.47606 -3.11369,-3.18832 -0.179956,-1.99736 0.183705,-3.763 2.82609,-4.98537z"/>
  <path class="fil0" d="M148.786 138.086c-1.15971,2.74254 -1.07366,5.35136 0.833722,7.76451l0.0141037 -0.0396331c-1.98344,0.726963 -2.09055,-1.20363 -2.58329,-2.09823 -1.22327,-2.21963 -0.382941,-4.51049 1.73546,-5.62664z"/>
  <path class="fil0" d="M74.7355 137.63c-0.592354,2.81377 -0.682153,5.60915 0.113365,8.41738 -0.660372,0 -1.50784,0 -2.23891,0 0.705183,-2.84822 0.854075,-5.63753 0.0207092,-8.44238 0.105867,-0.0637342 0.21209,-0.127468 0.317957,-0.191738 0.602173,0.0216018 1.23523,-0.213162 1.78688,0.216732z"/>
  <path class="fil0" d="M98.1354 145.16c-0.00749815,0.326883 0.974045,0.686259 0.0594496,0.939054 -0.643769,0.177992 -1.37645,0.0344558 -2.2914,0.0344558 0.947087,-1.44732 1.1124,-2.85733 0.479881,-4.31536 -0.177992,-0.0855146 -0.246546,-0.185133 -0.20602,-0.29939 0.0430251,-0.121399 0.0901563,-0.181919 0.143179,-0.181919 0.7491,-1.23327 0.349021,-2.47992 0.0433821,-3.72586 0.675012,-0.332953 1.3452,-0.371337 2.0079,0.0344558 -0.0576643,0.148356 -0.115686,0.296712 -0.17335,0.445426 -0.350271,2.35317 -0.240119,4.71062 -0.0630201,7.06914z"/>
  <path class="fil0" d="M139.368 145.731c-3.01086,-1.33574 -3.84583,-4.73919 -1.86632,-6.95542 0.211555,-0.236727 0.379728,-0.751957 0.863894,-0.431679 0.392046,0.2594 0.301354,0.572894 0.111937,0.982971 -1.05081,2.27569 -0.556291,4.36731 0.890494,6.40413z"/>
  <path class="fil0" d="M85.4664 145.178c0.620739,-2.70005 1.05706,-5.36742 -1.3211,-7.54206 2.14822,-0.0817655 2.84555,1.5323 3.17332,3.11423 0.361161,1.74493 0.290285,3.59608 -1.85222,4.42783z"/>
  <path class="fil0" d="M163.044 145.601c0.0726606,0.0192809 0.148356,0.0321349 0.217803,0.0590925 0.0689115,0.0269576 0.132289,0.0674833 0.197987,0.102475 -0.487022,0.428465 -2.56579,0.592889 -2.86286,0.163888 -0.0562361,-0.0812299 0.389725,-0.510231 0.603601,-0.778379 0.402043,-2.53277 -0.261721,-5.11552 0.356698,-7.63883 1.3311,-0.306174 1.0983,0.666085 1.16293,1.4109 0.193524,2.22338 -0.420075,4.48532 0.323848,6.68085z"/>
  <path class="fil0" d="M79.8303 138.083c-0.698577,2.57151 -0.38312,5.08071 0.466135,7.5567 -2.96534,-2.05289 -3.20492,-5.9355 -0.466135,-7.5567z"/>
  <path class="fil0" d="M154.045 145.147c0.828902,-2.70754 0.699113,-5.28619 -1.02885,-7.64972 1.94273,0.599852 2.92945,1.9688 2.95463,3.94938 0.0198165,1.52837 0.106759,3.19439 -1.92577,3.70034z"/>
  <path class="fil0" d="M172.45 145.654c2.14679,-1.48785 1.99808,-3.03728 -0.452567,-4.71223 1.55444,-0.146392 2.84555,0.247439 3.24598,1.93291 0.326883,1.37502 -0.236727,2.47082 -1.51623,3.08727 -0.409363,0.197094 -1.03582,0.536653 -1.27718,-0.30796z"/>
  <path class="fil0" d="M111.004 141.809c0,-0.121399 0,-0.242262 0,-0.36366 1.42608,-0.603244 1.80812,0.744459 2.42404,1.42554 0.818191,0.904598 1.4034,2.01932 2.10144,3.06281 -1.21202,0.645733 -1.90364,-0.0249938 -2.47796,-1.03724 -0.610563,-1.07616 -1.11276,-2.22588 -2.04753,-3.08745z"/>
  <path class="fil0" d="M163.044 145.601c-1.24612,-1.90364 -0.264934,-4.02454 -0.591461,-6.01548 -0.118542,-0.722143 0.509695,-1.82134 -0.901206,-1.9588 -0.180848,0.256008 -0.363303,0.256901 -0.547008,0.00339202 -0.705718,-0.327776 -1.58907,0.841221 -2.39209,-0.501126 2.35602,0 4.53174,0 6.70691,0 0.276717,0.528619 -0.131753,0.72125 -0.465778,0.950836 -1.42697,-0.809086 -2.16393,-0.528084 -2.04342,1.24469 0.142465,2.08913 -0.262435,4.19968 0.234049,6.27648z"/>
  <path class="fil0" d="M140.927 10.8811c2.2182,-1.09544 4.10184,-0.23762 4.99466,2.29372 -1.84686,-0.559147 -3.09066,-1.96541 -4.99466,-2.29372z"/>
  <path class="fil0" d="M126.562 130.498c3.44254,-0.586105 6.91579,-0.455423 10.3833,-0.449175 0.41704,0.483273 -0.058557,0.405793 -0.280109,0.407221 -3.36738,0.0207092 -6.7353,0.0301711 -10.1032,0.0419539z"/>
  <path class="fil0" d="M123.118 141.332c0.682153,-1.07563 0.467206,-2.19214 0.150141,-3.31311 0.76856,-0.160675 1.35377,-0.00999753 1.51391,0.880497 0.210662,1.169 0.310816,2.29658 -1.02493,2.92142 -0.229051,-0.142465 -0.546472,-0.169065 -0.639128,-0.488808z"/>
  <path class="fil0" d="M161.005 137.63c0.182276,-0.000892636 0.364731,-0.00232085 0.547008,-0.00339202 -0.209234,2.50295 0.44489,5.04607 -0.350449,7.52171 -0.118721,-2.50474 0.220124,-5.02144 -0.196559,-7.51832z"/>
  <path class="fil0" d="M98.1354 145.16c-0.599495,-2.36174 -0.691972,-4.71937 0.062306,-7.06932 -0.0207092,2.3562 -0.0415969,4.71276 -0.062306,7.06932z"/>
  <path class="fil0" d="M175.181 31.4038c-1.28629,0.816227 -2.84733,0.0731962 -4.16665,0.766239 0.999931,-1.24416 2.4851,-1.00225 3.78549,-1.30753 0.127111,0.180491 0.254223,0.360982 0.381156,0.541295z"/>
  <path class="fil0" d="M128.938 142.323c0.752493,-0.022673 1.50499,-0.0458815 2.25783,-0.0685545 0.0689115,0.305639 0.137466,0.611277 0.206378,0.916381 -1.11705,-0.0780164 -2.22945,-0.105331 -3.24938,0.441141 -0.351877,-0.937625 0.667871,-0.786948 0.785163,-1.28897z"/>
  <path class="fil0" d="M113.192 138.074c0.663586,-1.0085 1.29004,-1.23844 2.04289,-0.62913 0.32492,0.263149 0.425609,0.727856 0.115329,1.0226 -0.992969,0.944766 -1.27022,-0.562182 -2.15822,-0.393474z"/>
  <path class="fil0" d="M67.5992 144.992c0.488808,0.0415969 1.00475,0.204057 1.11008,0.685902 0.138002,0.629666 -0.525763,0.674476 -0.907454,0.769988 -0.543259,0.135502 -0.896564,-0.247082 -0.94191,-0.759098 -0.0396331,-0.445961 0.284751,-0.68126 0.739281,-0.696792z"/>
  <path class="fil0" d="M69.3586 137.631c-0.0915845,-0.161032 -1.14829,-0.123719 -0.269219,-0.384905 1.11901,-0.332953 2.42315,-0.0424895 3.64803,-0.0212447 0.157818,0.075517 0.219589,0.165316 0.185668,0.268684 -0.035884,0.110508 -0.0769453,0.165316 -0.122827,0.165316 0,0 -0.168708,-0.0542723 -0.168708,-0.0542723 -0.746244,0.122291 -1.57193,-0.0553435 -2.18321,0.577179 -0.374015,-0.16246 -0.730177,-0.359911 -1.08973,-0.550757z"/>
  <path class="fil0" d="M60.1223 146.063c-0.817655,0 -1.54747,0 -2.30747,0 1.06991,-1.30182 1.06991,-1.30182 2.30747,0z"/>
  <path class="fil0" d="M128.583 146.089c-0.615919,0 -1.23148,0 -1.87811,0 0.0340987,-0.801588 1.16632,-0.867643 0.833187,-1.81527 0.83765,0.416147 0.115329,1.4907 1.04492,1.81527z"/>
  <path class="fil0" d="M54.3301 145.944c-0.649482,1.0326 -1.55783,0.541295 -2.44814,0.233871 0.832294,-0.147821 1.66512,-0.296177 2.49742,-0.443997l-0.0492735 0.210127z"/>
  <path class="fil0" d="M80.5397 145.626c1.16346,-0.297069 2.3055,1.05706 3.47789,0.0439177 -1.18042,1.65513 -2.33246,1.06509 -3.47789,-0.0439177z"/>
  <path class="fil0" d="M69.3586 137.631c0.448818,0.0146392 0.900849,0.0221374 1.08973,0.550757 -0.0548079,1.04242 -0.109616,2.08502 -0.164424,3.12744 -0.836043,0.0298141 -0.59039,-0.470955 -0.451138,-0.919594 -0.0201736,-0.943338 0.170672,-1.92292 -0.474168,-2.7586z"/>
  <path class="fil0" d="M123.118 141.332c0.212983,0.162995 0.426145,0.325991 0.639128,0.488808 -0.800159,0.876212 -1.83312,0.442569 -2.77985,0.493092 0.530048,-0.726785 1.51159,-0.469884 2.14072,-0.9819z"/>
  <path class="fil0" d="M96.3201 141.337c0.0212447,0.160675 0.0419539,0.321171 0.0633772,0.48131 -1.2588,0.0235656 -2.51759,0.0473097 -3.77639,0.0708753 0.0212447,-0.197987 0.0424895,-0.395438 0.0637342,-0.593246 1.21613,0.0141037 2.43243,0.0278503 3.64928,0.0410613z"/>
  <path class="fil0" d="M143.862 139.256c-0.401508,-0.835151 -1.20917,-1.05153 -0.929056,-1.81669 0.0312423,-0.0846219 0.438284,-0.129432 0.602708,-0.0505232 0.726428,0.347771 0.689115,0.941553 0.326348,1.86722z"/>
  <path class="fil0" d="M149.634 145.811c0,0 -0.0141037,0.0396331 -0.0141037,0.0396331 1.01029,0.088371 2.02075,0.176742 3.03157,0.264934 -1.09348,0.767667 -2.11323,0.804087 -3.01747,-0.304568z"/>
  <path class="fil0" d="M142.647 146.092c-0.679296,0.873891 -1.56104,0.313137 -2.38066,0.318314 0.653767,-0.731605 1.72832,-0.0915845 2.39387,-0.739281 0.160139,0.0987256 0.211198,0.193702 0.154426,0.285287 -0.0560576,0.0903348 -0.111937,0.135681 -0.167637,0.135681z"/>
  <path class="fil0" d="M129.841 140.094c-0.294213,0.754278 -0.588604,1.50909 -0.882817,2.26355 -0.532368,-1.07706 -0.365981,-1.8815 0.882817,-2.26355z"/>
  <path class="fil0" d="M170.583 137.624c-0.632522,-0.00606993 -1.2654,-0.0123184 -1.89792,-0.0183883 0.74678,-0.577179 1.6637,-0.332953 2.45957,-0.324563 0.367052,0.00374907 -0.101582,0.31028 -0.332953,0.364196 -0.0708753,0.0160675 -0.152105,-0.013211 -0.228693,-0.0212447z"/>
  <path class="fil0" d="M110.174 137.64c-0.663586,-0.00999753 -1.32681,-0.0198165 -1.99058,-0.0298141 0.723214,-0.67644 1.65316,-0.268327 2.45903,-0.347593 0.434535,-0.0430251 0.00428465,0.318314 -0.236192,0.389725 -0.0698042,0.0207092 -0.154248,-0.00714109 -0.232264,-0.0123184z"/>
  <path class="fil0" d="M92.4741 145.172c-0.566824,-1.12133 -0.690186,-2.23088 0.0887281,-3.31632 -0.0296355,1.10526 -0.058914,2.21106 -0.0887281,3.31632z"/>
  <path class="fil0" d="M98.371 137.646c-0.669299,-0.0114257 -1.3386,-0.0232085 -2.0079,-0.0344558 0.727499,-0.624488 1.84972,-0.554506 2.39066,-0.322063 0.704647,0.302247 -0.22548,0.212983 -0.382763,0.356519z"/>
  <path class="fil0" d="M54.3301 145.944l0.107652 -0.0855146 -0.058557 -0.124791c0.342415,-0.497377 0.684831,-0.994218 1.3236,-1.92256 0.155497,1.56372 0.0369551,2.29872 -1.3727,2.13287z"/>
  <path class="fil0" d="M92.673 137.623c-0.675904,-0.000535582 -1.35145,-0.000892636 -2.02736,-0.00142822 -0.0760526,0.000892636 -0.154426,0.0141037 -0.227622,0 -0.222088,-0.0433821 -0.44971,-0.342951 -0.256901,-0.364196 0.81337,-0.0897992 1.64388,-0.0301711 2.4676,-0.0174957 0.061949,0.000892636 0.179063,0.0794446 0.174778,0.0940839 -0.0292785,0.100868 -0.0837293,0.193524 -0.130503,0.289036z"/>
  <path class="fil0" d="M142.647 146.092c0.0151748,-0.139787 0.0192809,-0.280109 0.013211,-0.420789 0.505946,-0.428823 0.594139,-1.24933 1.41519,-1.50588 0.258865,1.25451 0.00285644,2.02164 -1.4284,1.92667z"/>
  <path class="fil0" d="M120.355 137.665c-0.616455,-0.0146392 -1.23291,-0.0287429 -1.84919,-0.0433821 -0.226194,-0.0557005 -0.761419,-0.24369 -0.402043,-0.350449 0.709824,-0.211733 1.598,-0.27029 2.25123,0.393831z"/>
  <path class="fil0" d="M54.4176 137.726c1.20631,-0.386333 1.55872,0.052487 1.21024,1.21773 -0.574501,-0.251366 -0.930127,-0.686794 -1.21024,-1.21773z"/>
  <path class="fil0" d="M72.7997 137.659c-0.0349913,-0.142643 -0.0557005,-0.287607 -0.0628416,-0.434178 0.82194,-0.0198165 1.64477,-0.0580214 2.46564,-0.0387404 0.114793,0.00285644 0.361339,0.305639 -0.026422,0.41704 -0.138002,0.0396331 -0.29332,0.0198165 -0.440784,0.0273147 -0.645019,0.00928342 -1.2904,0.0191024 -1.93559,0.0285644z"/>
  <path class="fil0" d="M164.853 138.079c0.155319,-0.316886 0.31028,-0.63395 0.465778,-0.950836 1.05849,0.367945 0.588069,1.46767 0.342058,1.67209 -0.4606,0.383655 -0.394545,-0.594139 -0.807836,-0.72125z"/>
  <path class="fil0" d="M69.9773 142.382c-0.0930127,0.575751 0.127111,1.21863 -0.384012,1.74635 -0.396331,-0.739639 -0.11997,-1.46857 -0.0642698,-2.18928 0.420432,-0.126754 0.62556,-0.0357055 0.448282,0.442926z"/>
  <path class="fil0" d="M60.4199 141.984c0.039276,0.282073 0.0780164,0.563432 0.117114,0.845505 -0.380263,-0.0433821 -0.65698,0.929592 -0.991898,0.248867 -0.282609,-0.574144 0.009819,-1.18167 0.874784,-1.09437z"/>
  <path class="fil0" d="M69.9773 142.382c-0.149249,-0.147821 -0.299033,-0.295284 -0.448282,-0.443105 -0.128004,-0.561647 0.00749815,-1.07134 0.303318,-1.5498 0.150141,0.306531 0.300818,0.613063 0.451138,0.919594 0.152462,0.430429 0.0339202,0.783199 -0.306174,1.07331z"/>
  <path class="fil0" d="M266.251 94.457c0.175314,0.605565 0.212626,0.991898 -0.110508,1.29325 -0.0699827,0.0651625 -0.35759,0.0396331 -0.39401,-0.026422 -0.283858,-0.516301 0.0389189,-0.847826 0.504518,-1.26683z"/>
  <path class="fil0" d="M39.411 122.735c-1.03064,-0.194059 -1.85865,-0.105331 -1.84169,-0.651803 0.026065,-0.838364 0.637699,-0.234228 0.984399,-0.107652 0.186561,0.068376 0.322063,0.274396 0.857288,0.759455z"/>
 </g>
</svg>
