<?xml version="1.0" encoding="utf-8"?>
<!-- Generator: Adobe Illustrator 17.0.0, SVG Export Plug-In . SVG Version: 6.00 Build 0)  -->
<!DOCTYPE svg PUBLIC "-//W3C//DTD SVG 1.1//EN" "http://www.w3.org/Graphics/SVG/1.1/DTD/svg11.dtd">
<svg version="1.1" id="Слой_1" xmlns="http://www.w3.org/2000/svg" xmlns:xlink="http://www.w3.org/1999/xlink" x="0px" y="0px"
	 width="118px" height="120px" viewBox="0 0 118 120" enable-background="new 0 0 118 120" xml:space="preserve">
<g enable-background="new    ">
	<path d="M17.355,15.317h2.313v15.502h7.776V15.317h2.313v15.502h7.776V15.317h2.313v17.519h-22.49V15.317z"/>
	<path d="M57.955,32.836h-2.584l-1.944-5.364h-7.357l-1.994,5.364h-2.46l6.89-17.519h2.608L57.955,32.836z M49.762,17.531
		l-3.027,8.095h6.004L49.762,17.531z"/>
	<path d="M59.702,32.836V15.317h11.516v2.018h-9.203v15.502L59.702,32.836L59.702,32.836z"/>
	<path d="M73.162,32.836V15.317h11.516v2.018h-9.203v15.502L73.162,32.836L73.162,32.836z"/>
	<path d="M86.622,15.317h2.313v14.837h0.049l8.588-14.837h2.928v17.519h-2.314V17.949h-0.049l-8.612,14.887h-2.904V15.317z"/>
</g>
<g enable-background="new    ">
	<path d="M20.079,43.159c-1.575,0-2.607-1.167-2.607-2.966c0-1.599,0.927-2.99,2.655-2.99c1.095,0,2.199,0.687,2.327,1.847h-0.544
		c-0.176-0.848-0.872-1.376-1.799-1.376c-1.264,0-2.103,1.008-2.103,2.519c0,1.511,0.824,2.502,2.087,2.502
		c1.144,0,1.775-0.784,1.895-1.847h0.536C22.405,42.255,21.446,43.159,20.079,43.159z"/>
	<path d="M28.559,43.031H27.96l-0.687-1.791h-2.607l-0.696,1.791h-0.584l2.303-5.709h0.6L28.559,43.031z M25.985,37.833L24.834,40.8
		h2.271L25.985,37.833z"/>
	<path d="M33.402,43.031v-5.23h-2.294l-0.104,3.351c-0.032,1.143-0.336,1.999-1.199,1.999c-0.224,0-0.432-0.048-0.575-0.112v-0.448
		c0.104,0.064,0.4,0.097,0.56,0.097c0.408,0,0.647-0.401,0.695-1.855l0.112-3.495h3.351v5.693H33.402z"/>
	<path d="M40.812,40.2c0,1.775-1.087,2.966-2.695,2.966c-1.599,0-2.67-1.199-2.67-2.982c0-1.775,1.08-2.983,2.679-2.983
		C39.717,37.201,40.812,38.417,40.812,40.2z M35.991,40.168c0,1.527,0.848,2.527,2.134,2.527c1.288,0,2.144-1,2.144-2.502
		c0-1.503-0.864-2.519-2.151-2.519C36.846,37.673,35.991,38.681,35.991,40.168z"/>
	<path d="M46.815,43.031h-0.544V40.28h-3.398v2.751h-0.544v-5.693h0.544v2.479h3.398v-2.479h0.544V43.031z"/>
	<path d="M51.17,43.031h-2.535v-5.693h0.544v2.399h1.991c1.048,0,1.695,0.64,1.695,1.647C52.865,42.391,52.218,43.031,51.17,43.031z
		 M51.05,40.2h-1.871v2.367h1.871c0.8,0,1.271-0.448,1.271-1.184C52.321,40.648,51.85,40.2,51.05,40.2z M54.208,37.338v5.693h-0.544
		v-5.693C53.664,37.338,54.208,37.338,54.208,37.338z"/>
	<path d="M60.921,39.664l2.695,3.367H62.92l-2.383-2.999l-1.087,0.992v2.007h-0.536v-5.693h0.536v3.062l3.318-3.062h0.72
		L60.921,39.664z"/>
	<path d="M67.235,37.338c1.063,0,1.791,0.535,1.791,1.599c0,1.111-0.728,1.663-1.807,1.663H65.34v2.43h-0.544v-5.693
		C64.796,37.338,67.235,37.338,67.235,37.338z M65.34,40.145h1.727c0.783,0,1.415-0.32,1.415-1.167c0-0.816-0.544-1.176-1.359-1.176
		H65.34L65.34,40.145L65.34,40.145z"/>
	<path d="M74.454,43.031h-0.6l-0.687-1.791H70.56l-0.696,1.791H69.28l2.303-5.709h0.599L74.454,43.031z M71.879,37.833L70.727,40.8
		h2.271L71.879,37.833z"/>
	<path d="M77.978,43.159c-1.575,0-2.607-1.167-2.607-2.966c0-1.599,0.928-2.99,2.655-2.99c1.095,0,2.198,0.687,2.327,1.847h-0.544
		c-0.176-0.848-0.872-1.376-1.799-1.376c-1.263,0-2.103,1.008-2.103,2.519c0,1.511,0.823,2.502,2.086,2.502
		c1.144,0,1.775-0.784,1.895-1.847h0.535C80.304,42.255,79.344,43.159,77.978,43.159z"/>
	<path d="M87.002,40.2c0,1.775-1.087,2.966-2.695,2.966c-1.599,0-2.671-1.199-2.671-2.982c0-1.775,1.08-2.983,2.679-2.983
		C85.907,37.201,87.002,38.417,87.002,40.2z M82.181,40.168c0,1.527,0.848,2.527,2.134,2.527c1.288,0,2.144-1,2.144-2.502
		c0-1.503-0.864-2.519-2.151-2.519C83.036,37.673,82.181,38.681,82.181,40.168z"/>
	<path d="M92.301,37.802h-2v5.23h-0.544v-5.23h-1.999v-0.464H92.3L92.301,37.802L92.301,37.802z"/>
	<path d="M96.033,43.031h-2.535v-5.693h0.544v2.399h1.991c1.047,0,1.695,0.64,1.695,1.647C97.728,42.391,97.08,43.031,96.033,43.031
		z M95.913,40.2h-1.871v2.367h1.871c0.8,0,1.271-0.448,1.271-1.184C97.184,40.648,96.712,40.2,95.913,40.2z M99.071,37.338v5.693
		h-0.544v-5.693C98.527,37.338,99.071,37.338,99.071,37.338z"/>
</g>
<g>
	<path d="M59.11,55.548c-9.407,0-17.06,7.462-17.06,16.87c0,2.085,0.445,4.36,1.246,6.407h-0.013l0.076,0.153
		c0.064,0.14,0.127,0.28,0.191,0.42L59.11,112.5l15.484-32.938l0.076-0.153c0.064-0.14,0.14-0.28,0.203-0.432l0.051-0.14
		c0.826-2.047,1.246-4.208,1.246-6.394C76.171,63.01,68.518,55.548,59.11,55.548z M59.11,77.782c-3.293,0-5.962-2.67-5.962-5.962
		c0-3.293,2.67-5.962,5.962-5.962s5.962,2.67,5.962,5.962C65.072,75.112,62.403,77.782,59.11,77.782z"/>
</g>
</svg>
