<?xml version="1.0" encoding="UTF-8" standalone="no"?>
<!-- Generator: Adobe Illustrator 17.0.0, SVG Export Plug-In . SVG Version: 6.00 Build 0)  -->

<svg
   xmlns:ns="&amp;ns_sfw;"
   xmlns:dc="http://purl.org/dc/elements/1.1/"
   xmlns:cc="http://creativecommons.org/ns#"
   xmlns:rdf="http://www.w3.org/1999/02/22-rdf-syntax-ns#"
   xmlns:svg="http://www.w3.org/2000/svg"
   xmlns="http://www.w3.org/2000/svg"
   xmlns:sodipodi="http://sodipodi.sourceforge.net/DTD/sodipodi-0.dtd"
   xmlns:inkscape="http://www.inkscape.org/namespaces/inkscape"
   version="1.1"
   id="Слой_1"
   x="0px"
   y="0px"
   width="118.57011"
   height="40.653591"
   viewBox="0 0 118.57011 40.653592"
   enable-background="new 0 0 283.46 283.46"
   xml:space="preserve"
   inkscape:version="0.91 r13725"
   sodipodi:docname="logo-final-dark.svg"><defs
     id="defs47" /><sodipodi:namedview
     pagecolor="#ffffff"
     bordercolor="#666666"
     borderopacity="1"
     objecttolerance="10"
     gridtolerance="10"
     guidetolerance="10"
     inkscape:pageopacity="0"
     inkscape:pageshadow="2"
     inkscape:window-width="1920"
     inkscape:window-height="1018"
     id="namedview45"
     showgrid="false"
     fit-margin-top="0"
     fit-margin-left="0"
     fit-margin-right="0"
     fit-margin-bottom="0"
     inkscape:zoom="4.7097214"
     inkscape:cx="20.062816"
     inkscape:cy="7.5236106"
     inkscape:window-x="-8"
     inkscape:window-y="-8"
     inkscape:window-maximized="1"
     inkscape:current-layer="Слой_1" /><metadata
     id="metadata3"><ns:sfw><ns:slices /><ns:sliceSourceBounds
         height="27.277"
         width="79.556"
         y="170.636"
         x="49.16"
         bottomLeftOrigin="true" /></ns:sfw><rdf:RDF><cc:Work
         rdf:about=""><dc:format>image/svg+xml</dc:format><dc:type
           rdf:resource="http://purl.org/dc/dcmitype/StillImage" /><dc:title></dc:title></cc:Work></rdf:RDF></metadata><path
     d="m 54.840688,26.110293 -3.851188,0 -2.897334,-7.994495 -10.964858,0 -2.971854,7.994495 -3.666379,0 L 40.757917,10e-6 l 3.886958,0 10.195813,26.110283 z M 42.629857,3.299751 l -4.511435,12.064772 8.94835,0 -4.436915,-12.064772 z"
     id="path5"
     inkscape:connector-curvature="0" /><path
     d="m 57.444414,26.110293 0,-26.110283 17.163423,0 0,3.007623 -13.716133,0 0,23.10415 -3.44729,-0.0015 0,0 z"
     id="path7"
     inkscape:connector-curvature="0" /><path
     d="m 80.952462,3.9987477 0,22.1130353 -3.447291,-0.0015 0,0 0,-26.110283 17.163424,0 0,3.007623 -13.716133,0 0,0.9911147"
     id="path9"
     inkscape:connector-curvature="0" /><path
     d="m 97.565929,1e-5 3.447291,0 0,22.113035 0.073,0 12.79954,-22.113035 4.36388,0 0,26.110283 -3.44878,0 0,-22.1875556 -0.073,0 -12.83531,22.1875556 -4.328112,0 0.0015,-26.110283 0,0 z"
     id="path11"
     inkscape:connector-curvature="0" /><g
     id="g13"
     transform="matrix(1.490398,0,0,1.490398,-73.610757,-127.15628)"><path
       d="m 51.605,85.59 0,15.479 5.641,0 0,-15.479 2.215,0 0,15.479 5.615,0 0,-15.479 2.241,0 0,17.36 -17.927,0 0,-17.36 2.215,0 z"
       id="path15"
       inkscape:connector-curvature="0" /></g><g
     id="g17"
     transform="matrix(1.490398,0,0,1.490398,-73.610757,-127.15628)"><path
       d="m 51.938,112.586 c -1.536,0 -2.541,-1.136 -2.541,-2.888 0,-1.557 0.904,-2.911 2.588,-2.911 1.067,0 2.144,0.669 2.268,1.799 l -0.531,0 c -0.171,-0.826 -0.85,-1.339 -1.754,-1.339 -1.232,0 -2.051,0.981 -2.051,2.453 0,1.471 0.803,2.436 2.035,2.436 1.115,0 1.73,-0.763 1.847,-1.799 l 0.522,0 c -0.115,1.369 -1.05,2.249 -2.383,2.249 z"
       id="path19"
       inkscape:connector-curvature="0" /><path
       d="m 60.206,112.461 -0.584,0 -0.67,-1.744 -2.542,0 -0.678,1.744 -0.569,0 2.245,-5.558 0.585,0 2.213,5.558 z m -2.51,-5.06 -1.123,2.888 2.214,0 -1.091,-2.888 z"
       id="path21"
       inkscape:connector-curvature="0" /><path
       d="m 64.927,112.461 0,-5.091 -2.237,0 -0.101,3.262 c -0.032,1.113 -0.327,1.946 -1.169,1.946 -0.219,0 -0.421,-0.047 -0.561,-0.109 l 0,-0.436 c 0.101,0.062 0.39,0.094 0.546,0.094 0.397,0 0.631,-0.39 0.678,-1.806 l 0.109,-3.402 3.267,0 0,5.542 -0.532,0 z"
       id="path23"
       inkscape:connector-curvature="0" /><path
       d="m 72.151,109.706 c 0,1.729 -1.06,2.888 -2.627,2.888 -1.559,0 -2.603,-1.168 -2.603,-2.903 0,-1.729 1.052,-2.904 2.611,-2.904 1.551,-0.001 2.619,1.183 2.619,2.919 z m -4.701,-0.032 c 0,1.487 0.826,2.46 2.081,2.46 1.255,0 2.09,-0.973 2.09,-2.436 0,-1.464 -0.842,-2.453 -2.097,-2.453 -1.24,0 -2.074,0.981 -2.074,2.429 z"
       id="path25"
       inkscape:connector-curvature="0" /><path
       d="m 78.002,112.461 -0.53,0 0,-2.678 -3.312,0 0,2.678 -0.53,0 0,-5.542 0.53,0 0,2.414 3.313,0 0,-2.414 0.53,0 0,5.542 z"
       id="path27"
       inkscape:connector-curvature="0" /><path
       d="m 82.248,112.461 -2.471,0 0,-5.542 0.53,0 0,2.335 1.941,0 c 1.021,0 1.652,0.623 1.652,1.604 10e-4,0.98 -0.63,1.603 -1.652,1.603 z m -0.117,-2.755 -1.824,0 0,2.304 1.824,0 c 0.78,0 1.239,-0.436 1.239,-1.153 10e-4,-0.715 -0.459,-1.151 -1.239,-1.151 z m 3.079,-2.787 0,5.542 -0.53,0 0,-5.542 c 0,0 0.53,0 0.53,0 z"
       id="path29"
       inkscape:connector-curvature="0" /><path
       d="m 91.754,109.184 2.627,3.278 -0.678,0 -2.323,-2.919 -1.06,0.966 0,1.954 -0.522,0 0,-5.542 0.522,0 0,2.981 3.235,-2.981 0.702,0 -2.503,2.263 z"
       id="path31"
       inkscape:connector-curvature="0" /><path
       d="m 97.91,106.919 c 1.037,0 1.746,0.521 1.746,1.557 0,1.082 -0.709,1.619 -1.762,1.619 l -1.832,0 0,2.366 -0.53,0 0,-5.542 c 0,0 2.378,0 2.378,0 z m -1.847,2.733 1.683,0 c 0.764,0 1.38,-0.312 1.38,-1.136 0,-0.794 -0.53,-1.145 -1.325,-1.145 l -1.738,0 0,2.281 0,0 z"
       id="path33"
       inkscape:connector-curvature="0" /><path
       d="m 104.947,112.461 -0.585,0 -0.67,-1.744 -2.541,0 -0.678,1.744 -0.569,0 2.245,-5.558 0.584,0 2.214,5.558 z m -2.51,-5.06 -1.123,2.888 2.214,0 -1.091,-2.888 z"
       id="path35"
       inkscape:connector-curvature="0" /><path
       d="m 108.383,112.586 c -1.536,0 -2.541,-1.136 -2.541,-2.888 0,-1.557 0.905,-2.911 2.588,-2.911 1.067,0 2.143,0.669 2.268,1.799 l -0.53,0 c -0.172,-0.826 -0.85,-1.339 -1.754,-1.339 -1.231,0 -2.05,0.981 -2.05,2.453 0,1.471 0.802,2.436 2.034,2.436 1.115,0 1.731,-0.763 1.848,-1.799 l 0.522,0 c -0.118,1.369 -1.053,2.249 -2.385,2.249 z"
       id="path37"
       inkscape:connector-curvature="0" /><path
       d="m 117.18,109.706 c 0,1.729 -1.06,2.888 -2.627,2.888 -1.559,0 -2.604,-1.168 -2.604,-2.903 0,-1.729 1.052,-2.904 2.611,-2.904 1.553,-0.001 2.62,1.183 2.62,2.919 z m -4.7,-0.032 c 0,1.487 0.826,2.46 2.081,2.46 1.255,0 2.09,-0.973 2.09,-2.436 0,-1.464 -0.842,-2.453 -2.097,-2.453 -1.24,0 -2.074,0.981 -2.074,2.429 z"
       id="path39"
       inkscape:connector-curvature="0" /><path
       d="m 122.346,107.37 -1.95,0 0,5.091 -0.53,0 0,-5.091 -1.949,0 0,-0.452 4.427,0 0.002,0.452 0,0 z"
       id="path41"
       inkscape:connector-curvature="0" /><path
       d="m 125.984,112.461 -2.471,0 0,-5.542 0.531,0 0,2.335 1.941,0 c 1.021,0 1.652,0.623 1.652,1.604 0,0.98 -0.632,1.603 -1.653,1.603 z m -0.117,-2.755 -1.824,0 0,2.304 1.824,0 c 0.779,0 1.239,-0.436 1.239,-1.153 0,-0.715 -0.459,-1.151 -1.239,-1.151 z m 3.079,-2.787 0,5.542 -0.53,0 0,-5.542 c 0,0 0.53,0 0.53,0 z"
       id="path43"
       inkscape:connector-curvature="0" /></g></svg>