<?xml version="1.0" encoding="utf-8"?>
<!-- Generator: Adobe Illustrator 17.0.0, SVG Export Plug-In . SVG Version: 6.00 Build 0)  -->
<!DOCTYPE svg PUBLIC "-//W3C//DTD SVG 1.1//EN" "http://www.w3.org/Graphics/SVG/1.1/DTD/svg11.dtd">
<svg version="1.1" id="Слой_1" xmlns="http://www.w3.org/2000/svg" xmlns:xlink="http://www.w3.org/1999/xlink" x="0px" y="0px"
	 width="118px" height="39px" viewBox="0 0 118 39" enable-background="new 0 0 118 39" xml:space="preserve">
<g enable-background="new    ">
	<path fill="#FFFFFF" d="M5.355,0.152h2.991v20.046h10.055V0.152h2.991v20.046h10.055V0.152h2.991v22.655H5.355V0.152z"/>
	<path fill="#FFFFFF" d="M57.858,22.807h-3.341l-2.514-6.937h-9.514l-2.578,6.937H36.73l8.91-22.655h3.373L57.858,22.807z
		 M47.262,3.016l-3.914,10.468h7.764L47.262,3.016z"/>
	<path fill="#FFFFFF" d="M60.117,22.807V0.152h14.892v2.609H63.108v20.047H60.117z"/>
	<path fill="#FFFFFF" d="M77.522,22.807V0.152h14.892v2.609H80.513v20.047H77.522z"/>
	<path fill="#FFFFFF" d="M94.928,0.152h2.991v19.187h0.064l11.106-19.187h3.786v22.655h-2.992V3.556h-0.063L98.683,22.807h-3.755
		V0.152z"/>
</g>
<g enable-background="new    ">
	<path fill="#FFFFFF" d="M8.877,38.99c-2.037,0-3.371-1.509-3.371-3.836c0-2.068,1.199-3.867,3.433-3.867
		c1.416,0,2.844,0.889,3.009,2.389h-0.704c-0.227-1.097-1.127-1.779-2.326-1.779c-1.634,0-2.72,1.303-2.72,3.258
		c0,1.954,1.065,3.236,2.699,3.236c1.479,0,2.295-1.014,2.45-2.389h0.693C11.886,37.821,10.645,38.99,8.877,38.99z"/>
	<path fill="#FFFFFF" d="M19.844,38.824h-0.775l-0.889-2.316h-3.371l-0.9,2.316h-0.755l2.978-7.383h0.776L19.844,38.824z
		 M16.515,32.103l-1.489,3.836h2.937L16.515,32.103z"/>
	<path fill="#FFFFFF" d="M26.107,38.824v-6.763H23.14l-0.134,4.333c-0.042,1.478-0.434,2.585-1.551,2.585
		c-0.29,0-0.559-0.062-0.744-0.145v-0.579c0.134,0.083,0.517,0.125,0.724,0.125c0.527,0,0.837-0.518,0.899-2.399l0.145-4.519h4.333
		v7.362H26.107z"/>
	<path fill="#FFFFFF" d="M35.689,35.164c0,2.296-1.406,3.836-3.485,3.836c-2.068,0-3.453-1.551-3.453-3.856
		c0-2.296,1.396-3.857,3.464-3.857C34.273,31.286,35.689,32.858,35.689,35.164z M29.454,35.122c0,1.975,1.096,3.268,2.76,3.268
		c1.665,0,2.772-1.293,2.772-3.236c0-1.944-1.117-3.258-2.782-3.258C30.56,31.896,29.454,33.199,29.454,35.122z"/>
	<path fill="#FFFFFF" d="M43.451,38.824h-0.703v-3.557h-4.394v3.557h-0.703v-7.362h0.703v3.206h4.394v-3.206h0.703V38.824z"/>
	<path fill="#FFFFFF" d="M49.083,38.824h-3.278v-7.362h0.703v3.102h2.575c1.355,0,2.192,0.827,2.192,2.13
		S50.438,38.824,49.083,38.824z M48.928,35.164h-2.419v3.061h2.419c1.034,0,1.644-0.579,1.644-1.531
		C50.572,35.743,49.962,35.164,48.928,35.164z M53.012,31.462v7.362h-0.703v-7.362H53.012z"/>
	<path fill="#FFFFFF" d="M61.693,34.471l3.485,4.354h-0.9l-3.082-3.878l-1.406,1.283v2.595h-0.693v-7.362h0.693v3.96l4.291-3.96
		h0.931L61.693,34.471z"/>
	<path fill="#FFFFFF" d="M69.858,31.462c1.375,0,2.316,0.692,2.316,2.068c0,1.437-0.941,2.151-2.337,2.151h-2.43v3.143h-0.703
		v-7.362H69.858z M67.408,35.092h2.233c1.013,0,1.83-0.414,1.83-1.509c0-1.055-0.703-1.521-1.758-1.521h-2.306V35.092z"/>
	<path fill="#FFFFFF" d="M79.193,38.824h-0.776l-0.889-2.316h-3.37l-0.9,2.316h-0.755l2.978-7.383h0.775L79.193,38.824z
		 M75.863,32.103l-1.489,3.836h2.937L75.863,32.103z"/>
	<path fill="#FFFFFF" d="M83.75,38.99c-2.037,0-3.371-1.509-3.371-3.836c0-2.068,1.2-3.867,3.433-3.867
		c1.416,0,2.843,0.889,3.009,2.389h-0.703c-0.228-1.097-1.127-1.779-2.327-1.779c-1.633,0-2.719,1.303-2.719,3.258
		c0,1.954,1.064,3.236,2.698,3.236c1.479,0,2.296-1.014,2.451-2.389h0.692C86.758,37.821,85.517,38.99,83.75,38.99z"/>
	<path fill="#FFFFFF" d="M95.42,35.164c0,2.296-1.406,3.836-3.485,3.836c-2.068,0-3.454-1.551-3.454-3.856
		c0-2.296,1.396-3.857,3.464-3.857C94.004,31.286,95.42,32.858,95.42,35.164z M89.185,35.122c0,1.975,1.096,3.268,2.76,3.268
		c1.665,0,2.772-1.293,2.772-3.236c0-1.944-1.117-3.258-2.782-3.258C90.291,31.896,89.185,33.199,89.185,35.122z"/>
	<path fill="#FFFFFF" d="M102.272,32.062h-2.586v6.763h-0.703v-6.763h-2.585v-0.6h5.873V32.062z"/>
	<path fill="#FFFFFF" d="M107.098,38.824h-3.278v-7.362h0.704v3.102h2.575c1.354,0,2.192,0.827,2.192,2.13
		S108.452,38.824,107.098,38.824z M106.943,35.164h-2.419v3.061h2.419c1.034,0,1.644-0.579,1.644-1.531
		C108.587,35.743,107.977,35.164,106.943,35.164z M111.027,31.462v7.362h-0.703v-7.362H111.027z"/>
</g>
</svg>
