<?xml version="1.0" encoding="UTF-8" standalone="no"?>
<svg
   xmlns:dc="http://purl.org/dc/elements/1.1/"
   xmlns:cc="http://creativecommons.org/ns#"
   xmlns:rdf="http://www.w3.org/1999/02/22-rdf-syntax-ns#"
   xmlns:svg="http://www.w3.org/2000/svg"
   xmlns="http://www.w3.org/2000/svg"
   xmlns:sodipodi="http://sodipodi.sourceforge.net/DTD/sodipodi-0.dtd"
   xmlns:inkscape="http://www.inkscape.org/namespaces/inkscape"
   enable-background="new 0 0 141.732 141.732"
   height="17.220984"
   id="Livello_1"
   version="1.1"
   viewBox="0 0 9.2828659 17.220984"
   width="9.2828655"
   xml:space="preserve"
   inkscape:version="0.91 r13725"
   sodipodi:docname="phone2.svg"><metadata
     id="metadata11"><rdf:RDF><cc:Work
         rdf:about=""><dc:format>image/svg+xml</dc:format><dc:type
           rdf:resource="http://purl.org/dc/dcmitype/StillImage" /><dc:title></dc:title></cc:Work></rdf:RDF></metadata><defs
     id="defs9" /><sodipodi:namedview
     pagecolor="#ffffff"
     bordercolor="#666666"
     borderopacity="1"
     objecttolerance="10"
     gridtolerance="10"
     guidetolerance="10"
     inkscape:pageopacity="0"
     inkscape:pageshadow="2"
     inkscape:window-width="1920"
     inkscape:window-height="1018"
     id="namedview7"
     showgrid="false"
     fit-margin-top="0"
     fit-margin-left="0"
     fit-margin-right="0"
     fit-margin-bottom="0"
     inkscape:zoom="1.6651145"
     inkscape:cx="33.307997"
     inkscape:cy="68.490003"
     inkscape:window-x="-8"
     inkscape:window-y="-8"
     inkscape:window-maximized="1"
     inkscape:current-layer="Livello_1" /><g
     id="Livello_12"
     transform="matrix(0.12357547,0,0,0.12357547,-4.6412475,0)"><path
       d="m 108.225,118.226 -66.22,0 0,-107.337 66.22,0 0,107.337 z m -38.263,10.899 c 0,-2.951 2.37,-5.345 5.294,-5.345 2.925,0 5.294,2.394 5.294,5.345 0,2.95 -2.369,5.348 -5.294,5.348 -2.924,-0.004 -5.294,-2.398 -5.294,-5.348 m 42.706,4.851 0.009,0 0,-128.635 0,-0.001 0,-0.026 -0.002,0 C 112.661,2.377 110.278,0 107.336,0 c -0.021,0 -0.038,0.002 -0.057,0.002 l 0,-0.002 -11.997,0 -35,0 -17.388,0 c -2.938,0.002 -5.319,2.379 -5.335,5.314 l -10e-4,0 0,128.661 0.008,0 c -0.002,0.056 -0.008,0.111 -0.008,0.169 0,2.878 2.419,5.212 5.404,5.212 0.044,0 0.087,-0.006 0.131,-0.007 l 0,0.007 64.316,0 0,0 c 2.904,0 5.267,-2.333 5.267,-5.212 0.001,-0.057 -0.006,-0.113 -0.008,-0.168"
       id="path4"
       inkscape:connector-curvature="0" /></g><g
     id="Livello_1_1_"
     transform="translate(-37.558,-122.13502)" /></svg>