<?xml version="1.0" encoding="UTF-8" standalone="no"?>
<svg
   xmlns:dc="http://purl.org/dc/elements/1.1/"
   xmlns:cc="http://creativecommons.org/ns#"
   xmlns:rdf="http://www.w3.org/1999/02/22-rdf-syntax-ns#"
   xmlns:svg="http://www.w3.org/2000/svg"
   xmlns="http://www.w3.org/2000/svg"
   xmlns:sodipodi="http://sodipodi.sourceforge.net/DTD/sodipodi-0.dtd"
   xmlns:inkscape="http://www.inkscape.org/namespaces/inkscape"
   height="12.100101"
   id="svg1931"
   width="4.3053246"
   version="1.1"
   inkscape:version="0.91 r13725"
   sodipodi:docname="phone.svg">
  <metadata
     id="metadata14">
    <rdf:RDF>
      <cc:Work
         rdf:about="">
        <dc:format>image/svg+xml</dc:format>
        <dc:type
           rdf:resource="http://purl.org/dc/dcmitype/StillImage" />
        <dc:title></dc:title>
      </cc:Work>
    </rdf:RDF>
  </metadata>
  <sodipodi:namedview
     pagecolor="#ffffff"
     bordercolor="#666666"
     borderopacity="1"
     objecttolerance="10"
     gridtolerance="10"
     guidetolerance="10"
     inkscape:pageopacity="0"
     inkscape:pageshadow="2"
     inkscape:window-width="1920"
     inkscape:window-height="1018"
     id="namedview12"
     showgrid="false"
     fit-margin-top="0"
     fit-margin-left="0"
     fit-margin-right="0"
     fit-margin-bottom="0"
     inkscape:zoom="15.871649"
     inkscape:cx="25.741779"
     inkscape:cy="19.528614"
     inkscape:window-x="-8"
     inkscape:window-y="-8"
     inkscape:window-maximized="1"
     inkscape:current-layer="svg1931" />
  <defs
     id="defs1933">
    <marker
       id="ArrowEnd"
       markerHeight="3"
       markerUnits="strokeWidth"
       markerWidth="4"
       orient="auto"
       refX="0"
       refY="5"
       viewBox="0 0 10 10">
      <path
         d="M 0,0 10,5 0,10 Z"
         id="path1936"
         inkscape:connector-curvature="0" />
    </marker>
    <marker
       id="ArrowStart"
       markerHeight="3"
       markerUnits="strokeWidth"
       markerWidth="4"
       orient="auto"
       refX="10"
       refY="5"
       viewBox="0 0 10 10">
      <path
         d="M 10,0 0,5 10,10 Z"
         id="path1939"
         inkscape:connector-curvature="0" />
    </marker>
  </defs>
  <g
     id="g1941"
     transform="matrix(0.02543015,0,0,0.02543015,-6.4357898e-8,0)">
    <path
       id="path1947"
       style="fill:#000000;stroke:none"
       d="m 154.428,136.781 c 8.625,0 14.811,-7.027 14.811,-14.902 l 0.061,-0.062 c 0,0 -0.061,-107 -0.061,-107.063 C 169.239,6.504 162.553,0 154.428,0 l -37.8,0 0,136.781 c 0,0 37.707,0.058 37.738,0.027 l 0.062,-0.027 z m 0,339 c 8.625,0 14.811,-7.027 14.811,-14.902 l 0.061,-0.062 c 0,0 -0.061,-104 -0.061,-104.063 0,-8.25 -6.686,-14.754 -14.811,-14.754 l -37.8,0 0,133.781 c 0,0 37.707,0.058 37.738,0.027 l 0.062,-0.027 z M 106.182,0 C 83.8033,2.504 2.42665,39.697 0.0532532,231.479 -2.44675,433.504 83.8033,476.004 106.423,475.546 l 0,-133.436 c -18.6197,0 -22.3656,-20.274 -26.6197,-62.106 -2.815,-27.679 -3.6359,-61.943 0,-96 2.552,-23.897 7,-47.223 26.4997,-47.223 L 106.182,0 Z"
       inkscape:connector-curvature="0" />
  </g>
</svg>
