<?xml version="1.0" encoding="UTF-8" standalone="no"?>
<!-- Created with Inkscape (http://www.inkscape.org/) -->

<svg
   xmlns:dc="http://purl.org/dc/elements/1.1/"
   xmlns:cc="http://creativecommons.org/ns#"
   xmlns:rdf="http://www.w3.org/1999/02/22-rdf-syntax-ns#"
   xmlns:svg="http://www.w3.org/2000/svg"
   xmlns="http://www.w3.org/2000/svg"
   xmlns:sodipodi="http://sodipodi.sourceforge.net/DTD/sodipodi-0.dtd"
   xmlns:inkscape="http://www.inkscape.org/namespaces/inkscape"
   width="4.9641318mm"
   height="6.6619458mm"
   viewBox="0 0 17.589444 23.60532"
   id="svg4189"
   version="1.1"
   inkscape:version="0.91 r13725"
   sodipodi:docname="s_style.svg">
  <defs
     id="defs4191" />
  <sodipodi:namedview
     id="base"
     pagecolor="#ffffff"
     bordercolor="#666666"
     borderopacity="1.0"
     inkscape:pageopacity="0.0"
     inkscape:pageshadow="2"
     inkscape:zoom="3.959798"
     inkscape:cx="14.892322"
     inkscape:cy="80.990965"
     inkscape:document-units="px"
     inkscape:current-layer="layer1"
     showgrid="false"
     fit-margin-top="0"
     fit-margin-left="0"
     fit-margin-right="0"
     fit-margin-bottom="0"
     inkscape:window-width="1920"
     inkscape:window-height="1018"
     inkscape:window-x="-8"
     inkscape:window-y="-8"
     inkscape:window-maximized="1" />
  <metadata
     id="metadata4194">
    <rdf:RDF>
      <cc:Work
         rdf:about="">
        <dc:format>image/svg+xml</dc:format>
        <dc:type
           rdf:resource="http://purl.org/dc/dcmitype/StillImage" />
        <dc:title></dc:title>
      </cc:Work>
    </rdf:RDF>
  </metadata>
  <g
     inkscape:label="Layer 1"
     inkscape:groupmode="layer"
     id="layer1"
     transform="translate(-278.0985,-584.98939)">
    <g
       transform="matrix(0.20989037,0,0,0.20989037,245.14256,566.72242)"
       enable-background="new    "
       id="g31">
      <path
         inkscape:connector-curvature="0"
         d="m 157.015,87.031 2.313,0 0,15.502 7.776,0 0,-15.502 2.313,0 0,15.502 7.776,0 0,-15.502 2.313,0 0,17.519 -22.49,0 0,-17.519 -0.001,0 z"
         id="path33" />
      <path
         inkscape:connector-curvature="0"
         d="m 197.615,104.55 -2.584,0 -1.944,-5.364 -7.357,0 -1.994,5.364 -2.46,0 6.89,-17.519 2.608,0 6.841,17.519 z m -8.193,-15.305 -3.027,8.095 6.004,0 -2.977,-8.095 z"
         id="path35" />
      <path
         inkscape:connector-curvature="0"
         d="m 199.362,104.55 0,-17.519 11.516,0 0,2.018 -9.203,0 0,15.502 -2.313,-0.001 0,0 z"
         id="path37" />
      <path
         inkscape:connector-curvature="0"
         d="m 215.135,89.714 0,14.837 -2.313,-0.001 0,0 0,-17.519 11.516,0 0,2.018 -9.203,0 0,0.665"
         id="path39" />
      <path
         inkscape:connector-curvature="0"
         d="m 226.282,87.031 2.313,0 0,14.837 0.049,0 8.588,-14.837 2.928,0 0,17.519 -2.314,0 0,-14.887 -0.049,0 -8.612,14.887 -2.904,0 0,-17.519 0.001,0 z"
         id="path41" />
    </g>
    <g
       transform="matrix(0.20989037,0,0,0.20989037,245.14256,566.72242)"
       id="g43">
      <path
         inkscape:connector-curvature="0"
         d="m 197.681,142.544 c -9.407,0 -17.06,7.462 -17.06,16.87 0,2.085 0.445,4.36 1.246,6.407 l -0.013,0 0.076,0.153 c 0.064,0.14 0.127,0.28 0.191,0.42 l 15.56,33.102 15.484,-32.938 0.076,-0.153 c 0.064,-0.14 0.14,-0.28 0.203,-0.432 l 0.051,-0.14 c 0.826,-2.047 1.246,-4.208 1.246,-6.394 10e-4,-9.433 -7.652,-16.895 -17.06,-16.895 z m 0,22.234 c -3.293,0 -5.962,-2.67 -5.962,-5.962 0,-3.293 2.67,-5.962 5.962,-5.962 3.292,0 5.962,2.67 5.962,5.962 0,3.292 -2.669,5.962 -5.962,5.962 z"
         id="path45" />
    </g>
    <g
       transform="matrix(0.20989037,0,0,0.20989037,245.14256,566.72242)"
       id="g47">
      <path
         inkscape:connector-curvature="0"
         d="m 167.06,132.195 c -2.493,0 -4.482,-0.808 -5.969,-2.423 -1.487,-1.615 -2.23,-3.801 -2.23,-6.558 0,-2.757 0.743,-4.942 2.23,-6.558 1.486,-1.615 3.476,-2.423 5.969,-2.423 1.915,0 3.547,0.509 4.894,1.528 1.346,1.019 2.104,2.361 2.271,4.028 l -2.404,0 c -0.096,-1.098 -0.579,-1.97 -1.448,-2.618 -0.87,-0.647 -1.966,-0.972 -3.288,-0.972 -1.788,0 -3.202,0.606 -4.244,1.819 -1.042,1.213 -1.563,2.944 -1.563,5.195 0,2.243 0.518,3.973 1.552,5.189 1.033,1.216 2.436,1.825 4.207,1.825 1.379,0 2.493,-0.332 3.343,-0.995 0.85,-0.664 1.33,-1.611 1.442,-2.844 l 2.404,0 c -0.168,1.848 -0.905,3.278 -2.212,4.289 -1.307,1.011 -2.958,1.518 -4.954,1.518 z"
         id="path49" />
      <path
         inkscape:connector-curvature="0"
         d="m 189.986,116.591 -5.831,0 0,15.307 -2.344,0 0,-15.307 -5.783,0 0,-2.062 13.958,0 0,2.062 z"
         id="path51" />
      <path
         inkscape:connector-curvature="0"
         d="m 206.337,131.898 -2.225,0 0,-13.957 -9.232,13.957 -2.381,0 0,-17.368 2.212,0 0,13.945 9.233,-13.945 2.393,0 0,17.368 z"
         id="path53" />
      <path
         inkscape:connector-curvature="0"
         d="m 223.697,131.898 -2.345,0 0,-15.307 -7.754,0 0,10.888 c 0,3.127 -1.154,4.691 -3.463,4.691 -0.521,0 -1.09,-0.059 -1.707,-0.178 l 0,-2.038 c 0.337,0.095 0.749,0.142 1.238,0.142 0.585,0 0.998,-0.203 1.238,-0.61 0.24,-0.407 0.361,-1.06 0.361,-1.96 l 0,-12.996 12.431,0 0,17.368 z"
         id="path55" />
      <path
         inkscape:connector-curvature="0"
         d="m 229.973,121.804 3.92,0 c 4.616,0 6.925,1.683 6.925,5.047 0,1.627 -0.562,2.875 -1.684,3.744 -1.122,0.869 -2.753,1.303 -4.893,1.303 l -6.601,0 0,-17.368 2.332,0 0,7.274 z m 0,8.033 4.244,0 c 2.789,0 4.184,-0.995 4.184,-2.985 0,-1.035 -0.322,-1.791 -0.968,-2.269 -0.645,-0.478 -1.817,-0.717 -3.517,-0.717 l -3.943,0 0,5.971 z"
         id="path57" />
    </g>
  </g>
</svg>
