<?xml version="1.0" encoding="UTF-8" standalone="no"?>
<!-- Created with Inkscape (http://www.inkscape.org/) -->

<svg
   xmlns:dc="http://purl.org/dc/elements/1.1/"
   xmlns:cc="http://creativecommons.org/ns#"
   xmlns:rdf="http://www.w3.org/1999/02/22-rdf-syntax-ns#"
   xmlns:svg="http://www.w3.org/2000/svg"
   xmlns="http://www.w3.org/2000/svg"
   xmlns:sodipodi="http://sodipodi.sourceforge.net/DTD/sodipodi-0.dtd"
   xmlns:inkscape="http://www.inkscape.org/namespaces/inkscape"
   width="23.465366mm"
   height="31.73984mm"
   viewBox="0 0 83.144999 112.464"
   id="svg4812"
   version="1.1"
   inkscape:version="0.91 r13725"
   sodipodi:docname="s_time.svg">
  <defs
     id="defs4814" />
  <sodipodi:namedview
     id="base"
     pagecolor="#ffffff"
     bordercolor="#666666"
     borderopacity="1.0"
     inkscape:pageopacity="0.0"
     inkscape:pageshadow="2"
     inkscape:zoom="0.35"
     inkscape:cx="-443.4275"
     inkscape:cy="216.23201"
     inkscape:document-units="px"
     inkscape:current-layer="layer1"
     showgrid="false"
     inkscape:window-width="1920"
     inkscape:window-height="1018"
     inkscape:window-x="-8"
     inkscape:window-y="-8"
     inkscape:window-maximized="1"
     fit-margin-top="0"
     fit-margin-left="0"
     fit-margin-right="0"
     fit-margin-bottom="0" />
  <metadata
     id="metadata4817">
    <rdf:RDF>
      <cc:Work
         rdf:about="">
        <dc:format>image/svg+xml</dc:format>
        <dc:type
           rdf:resource="http://purl.org/dc/dcmitype/StillImage" />
        <dc:title></dc:title>
      </cc:Work>
    </rdf:RDF>
  </metadata>
  <g
     inkscape:label="Layer 1"
     inkscape:groupmode="layer"
     id="layer1"
     transform="translate(-304.14179,-636.13021)">
    <g
       transform="translate(258.55579,550.81321)"
       enable-background="new    "
       id="g5">
      <path
         inkscape:connector-curvature="0"
         d="m 45.586,85.317 2.313,0 0,15.502 7.776,0 0,-15.502 2.313,0 0,15.502 7.776,0 0,-15.502 2.313,0 0,17.519 -22.49,0 0,-17.519 -0.001,0 z"
         id="path7" />
      <path
         inkscape:connector-curvature="0"
         d="m 86.186,102.836 -2.584,0 -1.944,-5.364 -7.357,0 -1.994,5.364 -2.46,0 6.89,-17.519 2.608,0 6.841,17.519 z m -8.193,-15.305 -3.027,8.095 6.004,0 -2.977,-8.095 z"
         id="path9" />
      <path
         inkscape:connector-curvature="0"
         d="m 87.933,102.836 0,-17.519 11.516,0 0,2.018 -9.203,0 0,15.502 -2.313,-0.001 0,0 z"
         id="path11" />
      <path
         inkscape:connector-curvature="0"
         d="m 103.706,88 0,14.837 -2.313,-0.001 0,0 0,-17.519 11.516,0 0,2.018 -9.203,0 0,0.665"
         id="path13" />
      <path
         inkscape:connector-curvature="0"
         d="m 114.853,85.317 2.313,0 0,14.837 0.049,0 8.588,-14.837 2.928,0 0,17.519 -2.314,0 0,-14.887 -0.049,0 -8.612,14.887 -2.904,0 10e-4,-17.519 0,0 z"
         id="path15" />
    </g>
    <g
       transform="translate(258.55579,550.81321)"
       id="g17">
      <path
         inkscape:connector-curvature="0"
         d="m 86.253,140.829 c -9.407,0 -17.06,7.462 -17.06,16.87 0,2.085 0.445,4.36 1.246,6.407 l -0.013,0 0.076,0.153 c 0.064,0.14 0.127,0.28 0.191,0.42 l 15.56,33.102 15.484,-32.938 0.076,-0.153 c 0.064,-0.14 0.14,-0.28 0.203,-0.432 l 0.051,-0.14 c 0.826,-2.047 1.246,-4.208 1.246,-6.394 10e-4,-9.433 -7.652,-16.895 -17.06,-16.895 z m 0,22.234 c -3.293,0 -5.962,-2.67 -5.962,-5.962 0,-3.293 2.67,-5.962 5.962,-5.962 3.292,0 5.962,2.67 5.962,5.962 0,3.292 -2.669,5.962 -5.962,5.962 z"
         id="path19" />
    </g>
    <g
       transform="translate(258.55579,550.81321)"
       id="g21">
      <path
         inkscape:connector-curvature="0"
         d="m 66.78,114.877 -5.831,0 0,15.307 -2.344,0 0,-15.307 -5.783,0 0,-2.062 13.958,0 0,2.062 z"
         id="path23" />
      <path
         inkscape:connector-curvature="0"
         d="m 83.769,130.184 -2.634,0 -2.043,-5.284 -7.382,0 -1.948,5.284 -2.465,0 6.769,-17.369 2.514,0 7.189,17.369 z m -5.363,-7.108 -3.102,-8.057 -2.958,8.057 6.06,0 z"
         id="path25" />
      <path
         inkscape:connector-curvature="0"
         d="m 99.554,130.184 -2.225,0 0,-13.957 -9.232,13.957 -2.381,0 0,-17.369 2.212,0 0,13.945 9.233,-13.945 2.393,0 0,17.369 z m -3.355,-21.645 c -0.096,0.979 -0.467,1.738 -1.112,2.275 -0.645,0.537 -1.465,0.806 -2.458,0.806 -1.002,0 -1.823,-0.271 -2.465,-0.812 -0.642,-0.541 -1.002,-1.297 -1.082,-2.269 l 1.479,0 c 0.192,1.074 0.882,1.611 2.068,1.611 1.17,0 1.867,-0.537 2.092,-1.611 l 1.478,0 z"
         id="path27" />
      <path
         inkscape:connector-curvature="0"
         d="m 120.064,130.184 -2.213,0 0,-14.774 -5.025,14.774 -2.092,0 -5.025,-14.774 0,14.774 -2.212,0 0,-17.369 3.499,0 4.772,14.478 4.797,-14.478 3.499,0 0,17.369 z"
         id="path29" />
    </g>
  </g>
</svg>
