<?xml version="1.0" encoding="UTF-8"?>
<!DOCTYPE svg PUBLIC "-//W3C//DTD SVG 1.1//EN" "http://www.w3.org/Graphics/SVG/1.1/DTD/svg11.dtd">
<!-- Creator: CorelDRAW -->
<svg xmlns="http://www.w3.org/2000/svg" xml:space="preserve" width="60px" height="60px" style="shape-rendering:geometricPrecision; text-rendering:geometricPrecision; image-rendering:optimizeQuality; fill-rule:evenodd; clip-rule:evenodd"
viewBox="0 0 16.9706 16.8428"
 xmlns:xlink="http://www.w3.org/1999/xlink">
 <defs>
  <style type="text/css">
   <![CDATA[
    .fil0 {fill:white}
   ]]>
  </style>
 </defs>
 <g id="Layer_x0020_1">
  <metadata id="CorelCorpID_0Corel-Layer"/>
  <path class="fil0" d="M16.6776 14.7935l-4.65227 -4.64145c0.0423595,-0.0633021 0.073813,-0.167778 0.104555,-0.303866 0.491165,-0.825536 0.794794,-1.7252 0.888522,-2.67592 0.0217329,-0.219937 0.0317696,-0.449674 0.0317696,-0.669612 0,-0.720981 -0.120993,-1.44417 -0.366062,-2.15314 -0.318961,-0.922583 -0.828855,-1.74361 -1.53672,-2.44705 -1.25767,-1.2515 -2.91735,-1.90246 -4.62082,-1.90246 -1.68363,0 -3.34972,0.654359 -4.61102,1.90246 -0.840788,0.831937 -1.39731,1.82083 -1.69335,2.93829 -0.29944,1.1294 -0.293039,2.23675 0,3.35525 0.29296,1.11968 0.849482,2.09853 1.69335,2.93829 1.25798,1.25119 2.92739,1.90246 4.61102,1.90246 1.30698,0 2.49384,-0.377758 3.59621,-1.0661l0.167541 -0.104555 4.67322 4.66342c0.177578,0.177341 0.365746,0.281896 0.543403,0.30276 0.0414902,0.00979958 0.0730227,0.0117753 0.104476,0.00979958 0.125182,-0.00782386 0.240643,-0.0404628 0.334292,-0.0936492 0.126288,-0.0719953 0.261507,-0.177657 0.407315,-0.324572l0.210217 -0.207925c0.146124,-0.147231 0.25147,-0.282212 0.323386,-0.4085 0.0535816,-0.0936492 0.0839287,-0.219937 0.0839287,-0.376889l0 -0.0828223c0,-0.178447 -0.10985,-0.371357 -0.29296,-0.55423zm-4.96594 -6.88934c-0.245069,0.918079 -0.711181,1.7252 -1.40071,2.41433 -1.0039,1.00422 -2.35222,1.56825 -3.78438,1.56825 -1.41122,0 -2.75194,-0.57375 -3.7952,-1.56825 -2.05088,-1.95375 -2.04195,-5.60631 0,-7.57958 1.03125,-0.996475 2.37308,-1.57797 3.7952,-1.57797 1.49523,0 2.74222,0.529098 3.78438,1.57797 0.683047,0.687235 1.16007,1.48543 1.40071,2.40461 0.240564,0.920291 0.246175,1.83924 0,2.76064z"/>
  <polygon class="fil0" points="7.16365,3.77458 5.89935,3.77458 5.89935,5.88623 3.78659,5.88623 3.78659,7.15164 5.89935,7.15164 5.89935,9.27301 7.16365,9.27301 7.16365,7.15164 9.28645,7.15164 9.28645,5.88623 7.16365,5.88623 "/>
 </g>
</svg>
